<svg width="154" height="60" viewBox="0 0 154 69" fill="none" xmlns="http://www.w3.org/2000/svg">
<path d="M52 31.7838L54.7027 27.557C54.7342 27.5078 54.7699 27.4615 54.8094 27.4185L57.25 24.7669L61.5 21.1453L66.5 17.75L70 15.4865L72.75 13.6757L75 12.3176L76.3172 11.6361C76.5904 11.4947 76.9134 11.487 77.1931 11.615L78.25 12.099L80.5 13.4727L83.25 15.3044L86.75 17.5939L91.75 21.0282L96 24.6914L98.5 27.4389L101.25 31.3311M52 31.7838L47.5843 30.8953C47.5282 30.8841 47.4732 30.868 47.4198 30.8473L42.3663 28.8863C42.2891 28.8564 42.2159 28.8169 42.1484 28.7689L38.75 26.3514L36.25 24.0878L34.062 21.6666C34.0208 21.6209 33.9838 21.5716 33.9516 21.5191L32.75 19.5608L31.5 16.8446L30.75 14.3547L30.2587 12.1304C30.2529 12.1043 30.2483 12.0787 30.2446 12.0522C30.2083 11.7877 30 10.2607 30 10.0541V10.0541C30 9.5665 30.4164 9.18293 30.9024 9.22292L32.75 9.375L36.6343 10.2542C36.7112 10.2716 36.7857 10.298 36.8564 10.3329L39.5 11.6385L41.5 12.7703L43 13.902L43.5 14.3547M52 31.7838L49.8105 33.5459C49.7702 33.5783 49.7275 33.6076 49.6827 33.6334L47.1093 35.1161C47.0367 35.1579 46.9592 35.1904 46.8785 35.2129L43.75 36.0845L40.75 36.7635L38.25 36.9899H35L32.109 36.7717C32.0366 36.7663 31.9649 36.7529 31.8953 36.7319L29 35.8581L24.8224 34.0782C24.7742 34.0576 24.7277 34.0333 24.6833 34.0055L21.5747 32.057C21.525 32.0258 21.4781 31.9903 21.4346 31.951L20 30.652V30.652C19.5204 30.3264 19.5204 29.6196 20 29.2939L21 28.6149L24 27.0304L27 25.8986L30 25.2196L32.5 24.9932M52 31.7838L51 30.1993L48.8038 26.6643C48.768 26.6067 48.7382 26.5457 48.7148 26.4821L47.5257 23.2523C47.5086 23.2058 47.495 23.1581 47.4849 23.1096L46.7708 19.6611C46.757 19.5944 46.75 19.5265 46.75 19.4584V15.3567C46.75 15.2925 46.7562 15.2284 46.7685 15.1654L47.4795 11.5172C47.4931 11.4474 47.5142 11.3792 47.5422 11.3138L49.217 7.41458C49.239 7.36351 49.2651 7.31435 49.2952 7.26763L50.9589 4.68535C50.9863 4.64292 51.0168 4.60263 51.0502 4.56481L53.2714 2.05098C53.662 1.60887 54.3485 1.59928 54.7514 2.03033L56.6652 4.07822C56.7215 4.13845 56.7702 4.20542 56.81 4.27759L58.9371 8.12941C58.9789 8.20498 59.0106 8.28564 59.0317 8.36937L60.25 13.223M52 31.7838V35.4665C52 35.5759 51.982 35.6846 51.9468 35.7882L51.0417 38.4517C51.014 38.5331 50.9759 38.6106 50.9284 38.6823L48.75 41.9696L46.7997 44.3976C46.7666 44.4388 46.7303 44.4773 46.6912 44.5127L44.5 46.4966L42 48.3074L39 49.8919L35.5834 51.2176C35.5279 51.2392 35.4706 51.2557 35.4121 51.267L32.0944 51.9107C32.0316 51.9229 31.9678 51.9291 31.9039 51.9291H28.5C27.9477 51.9291 27.5 51.4813 27.5 50.9291V50.0173C27.5 49.934 27.5104 49.8511 27.531 49.7703L28.2225 47.0573C28.2408 46.9855 28.267 46.916 28.3006 46.8501L29.75 44.0068L31.5 41.5169L33 39.7061M101.25 31.3311L105.711 30.8914C105.799 30.8828 105.885 30.8625 105.967 30.8313L111.1 28.8849C111.176 28.8559 111.249 28.8176 111.316 28.7709L114.797 26.3514L117.355 24.0878L119.594 21.6663C119.636 21.6209 119.674 21.5716 119.706 21.5191L120.936 19.5608L122.215 16.8446L122.983 14.3547L123.494 12.0912L123.75 10.2804V10.2323C123.75 9.64842 123.252 9.18872 122.67 9.23554L120.936 9.375L116.957 10.2552C116.881 10.272 116.808 10.2974 116.738 10.331L114.029 11.6385L111.983 12.7703L110.448 13.902L109.936 14.3547M101.25 31.3311L103.694 33.3729C103.741 33.4124 103.792 33.4475 103.846 33.4776L106.428 34.9263C106.5 34.9665 106.576 34.9978 106.656 35.0193L109.811 35.8752L112.834 36.5414L115.353 36.7635H118.628L121.544 36.5492C121.615 36.5441 121.685 36.5314 121.753 36.5114L124.674 35.6531L128.885 33.9062C128.932 33.8864 128.978 33.863 129.022 33.8361L132.231 31.8777L133.934 30.698C133.978 30.6674 134.019 30.6326 134.056 30.5941V30.5941C134.417 30.2226 134.351 29.615 133.919 29.3295L132.735 28.5465L129.712 26.992L126.689 25.8816L123.666 25.2153L121.147 24.9932M101.25 31.3311L102.212 29.973L104.458 26.4386C104.495 26.3806 104.526 26.3189 104.55 26.2546L105.765 23.0271C105.783 22.9798 105.797 22.9313 105.808 22.8819L106.537 19.4369C106.552 19.3688 106.559 19.2994 106.559 19.2297V15.1325C106.559 15.0668 106.553 15.0014 106.54 14.937L105.813 11.2927C105.799 11.2217 105.777 11.1523 105.748 11.086L104.036 7.18891C104.013 7.13739 103.986 7.08787 103.955 7.04087L102.254 4.45894C102.226 4.41656 102.195 4.37636 102.161 4.3387L99.8645 1.79811C99.4749 1.36707 98.8012 1.35765 98.3997 1.77763L96.4165 3.85222C96.3592 3.91222 96.3095 3.97912 96.2687 4.05139L94.0908 7.90685C94.0495 7.97992 94.0176 8.05789 93.9958 8.13893L92.75 12.7703M101.25 31.3311L101.192 35.2289C101.19 35.3457 101.209 35.4619 101.247 35.5722L102.169 38.2239C102.197 38.3063 102.237 38.3845 102.286 38.4567L104.513 41.7432L106.509 44.1718C106.542 44.2126 106.579 44.2507 106.619 44.2857L108.861 46.2703L111.418 48.0811L114.487 49.6655L117.985 50.9925C118.039 51.0132 118.096 51.0291 118.153 51.04L121.555 51.6852C121.616 51.6968 121.678 51.7027 121.741 51.7027H125.25C125.802 51.7027 126.25 51.255 126.25 50.7027V49.7938C126.25 49.7086 126.239 49.6238 126.218 49.5415L125.511 46.8326C125.492 46.7597 125.465 46.6893 125.43 46.6225L123.982 43.8438C123.96 43.8016 123.935 43.761 123.907 43.7224L122.158 41.2905L120.624 39.4797" stroke="url(#paint0_linear)"/>
<path d="M2.41309 65.777V56.0016H3.13086V60.445H9.24902V56.0016H9.9668V65.777H9.24902V61.0602H3.13086V65.777H2.41309ZM12.0723 65.777H11.3066L15.7295 56.0016H16.584L21.0273 65.777H20.1729L18.7236 62.4958H14.3418L14.5537 61.8805H18.457L16.1123 56.5622L12.0723 65.777ZM27.542 65.1618H33.2568V56.6169H29.4971C29.4971 61.1696 28.8454 64.0179 27.542 65.1618ZM24.6846 68.3747V65.1618H25.9424C27.8337 65.1618 28.7793 62.3135 28.7793 56.6169V56.0016H33.9746V65.1618H35.2393V68.3747H34.5215V65.777H25.3955V68.3747H24.6846ZM37.2969 60.862C37.2969 63.7741 38.6709 65.2301 41.4189 65.2301C44.1169 65.2301 45.4658 63.7741 45.4658 60.862C45.4658 57.9863 44.1169 56.5485 41.4189 56.5485C38.6709 56.5485 37.2969 57.9863 37.2969 60.862ZM36.5107 60.903C36.5107 57.5898 38.1468 55.9333 41.4189 55.9333C44.641 55.9333 46.252 57.5898 46.252 60.903C46.252 64.1979 44.641 65.8454 41.4189 65.8454C38.1468 65.8454 36.5107 64.1979 36.5107 60.903ZM54.9473 56.0016V56.6169H48.8291V65.1413H52.1582C53.6074 65.1413 54.332 64.4372 54.332 63.029C54.332 61.5342 53.4844 60.7868 51.7891 60.7868H50.5039V60.1716H51.8506C53.9834 60.1716 55.0498 61.099 55.0498 62.9538C55.0498 64.8359 54.1247 65.777 52.2744 65.777H48.1045V56.0016H54.9473ZM57.0049 65.777V56.0016H61.1064C63.0114 56.0016 63.9639 56.8971 63.9639 58.6882C63.9639 60.4518 62.4395 61.5752 59.3906 62.0583L59.2676 61.402C61.8652 61.042 63.1641 60.1556 63.1641 58.7428C63.1641 57.3392 62.4395 56.6374 60.9902 56.6374H57.7227V65.777H57.0049ZM66.3633 56.0016V65.1413H69.7676C71.2168 65.1413 71.9414 64.4372 71.9414 63.029C71.9414 61.5342 71.0938 60.7868 69.3984 60.7868H67.498V60.1716H69.3984C71.5814 60.1716 72.6729 61.099 72.6729 62.9538C72.6729 64.8359 71.7204 65.777 69.8154 65.777H65.6455V56.0016H66.3633ZM73.9854 65.777V56.0016H74.7031V65.777H73.9854ZM79.8232 60.8893L75.9746 56.0016H76.8291L80.2471 60.3493L83.665 56.0016H84.5195L80.6777 60.8893L84.5195 65.777H83.665L80.2471 61.4294L76.8291 65.777H75.9746L79.8232 60.8893ZM89.2021 65.777V56.0016H89.9199V60.445H96.0381V56.0016H96.7559V65.777H96.0381V61.0602H89.9199V65.777H89.2021ZM98.8613 65.777H98.0957L102.519 56.0016H103.373L107.816 65.777H106.962L105.513 62.4958H101.131L101.343 61.8805H105.246L102.901 56.5622L98.8613 65.777ZM110.913 65.1618H116.628V56.6169H112.868C112.868 61.1696 112.216 64.0179 110.913 65.1618ZM108.056 68.3747V65.1618H109.313C111.205 65.1618 112.15 62.3135 112.15 56.6169V56.0016H117.346V65.1618H118.61V68.3747H117.893V65.777H108.767V68.3747H108.056ZM126.643 56.0016V56.6169H120.941V60.5134H126.41V61.1286H120.941V65.1618H126.738V65.777H120.224V56.0016H126.643ZM140.137 65.777C138.592 63.3161 137.619 61.8783 137.218 61.4635C136.817 61.0443 136.347 60.8346 135.81 60.8346V60.3356C136.721 60.3356 137.548 59.6133 138.291 58.1686C139.038 56.724 139.84 56.0016 140.697 56.0016H141.429V56.6169H140.889C140.169 56.6169 139.503 57.2367 138.893 58.4762C138.282 59.7113 137.646 60.4176 136.985 60.5954C137.327 60.6546 137.703 60.9121 138.113 61.3678C138.523 61.819 139.526 63.2887 141.121 65.777H140.137ZM134.989 56.0016V65.777H134.271V56.0016H134.989ZM128.14 65.777C129.735 63.2887 130.737 61.819 131.147 61.3678C131.558 60.9121 131.934 60.6546 132.275 60.5954C131.615 60.4176 130.979 59.7113 130.368 58.4762C129.757 57.2367 129.092 56.6169 128.372 56.6169H127.832V56.0016H128.563C129.42 56.0016 130.22 56.724 130.963 58.1686C131.71 59.6133 132.54 60.3356 133.451 60.3356V60.8346C132.913 60.8346 132.444 61.0443 132.043 61.4635C131.642 61.8783 130.669 63.3161 129.124 65.777H128.14ZM144.464 65.1618H150.179V56.6169H146.419C146.419 61.1696 145.767 64.0179 144.464 65.1618ZM141.606 68.3747V65.1618H142.864C144.756 65.1618 145.701 62.3135 145.701 56.6169V56.0016H150.896V65.1618H152.161V68.3747H151.443V65.777H142.317V68.3747H141.606Z" fill="url(#paint1_linear)"/>
<rect x="0.5" y="54.5" width="153" height="14" rx="0.5" stroke="#C16D9C"/>
<path d="M69 28C69 26.8954 69.8954 26 71 26H75C76.1046 26 77 26.8954 77 28V32C77 33.1046 76.1046 34 75 34H71C69.8954 34 69 33.1046 69 32V28Z" fill="url(#paint2_linear)"/>
<path d="M78 28C78 26.8954 78.8954 26 80 26H84C85.1046 26 86 26.8954 86 28V32C86 33.1046 85.1046 34 84 34H80C78.8954 34 78 33.1046 78 32V28Z" fill="url(#paint3_linear)"/>
<path d="M69 37C69 35.8954 69.8954 35 71 35H75C76.1046 35 77 35.8954 77 37V41C77 42.1046 76.1046 43 75 43H71C69.8954 43 69 42.1046 69 41V37Z" fill="url(#paint4_linear)"/>
<path d="M78 37C78 35.8954 78.8954 35 80 35H84C85.1046 35 86 35.8954 86 37V41C86 42.1046 85.1046 43 84 43H80C78.8954 43 78 42.1046 78 41V37Z" fill="url(#paint5_linear)"/>
<defs>
<linearGradient id="paint0_linear" x1="76.875" y1="1" x2="76.875" y2="51.9291" gradientUnits="userSpaceOnUse">
<stop stop-color="#E2427A"/>
<stop offset="1" stop-color="#E2427A" stop-opacity="0.47"/>
</linearGradient>
<linearGradient id="paint1_linear" x1="77" y1="55.777" x2="77" y2="66.1892" gradientUnits="userSpaceOnUse">
<stop stop-color="#AA3777"/>
<stop offset="1" stop-color="#E0007D" stop-opacity="0.34"/>
</linearGradient>
<linearGradient id="paint2_linear" x1="77.5" y1="26" x2="77.5" y2="43" gradientUnits="userSpaceOnUse">
<stop stop-color="#AE397A"/>
<stop offset="1" stop-color="#AE397A" stop-opacity="0.33"/>
</linearGradient>
<linearGradient id="paint3_linear" x1="77.5" y1="26" x2="77.5" y2="43" gradientUnits="userSpaceOnUse">
<stop stop-color="#AE397A"/>
<stop offset="1" stop-color="#AE397A" stop-opacity="0.33"/>
</linearGradient>
<linearGradient id="paint4_linear" x1="77.5" y1="26" x2="77.5" y2="43" gradientUnits="userSpaceOnUse">
<stop stop-color="#AE397A"/>
<stop offset="1" stop-color="#AE397A" stop-opacity="0.33"/>
</linearGradient>
<linearGradient id="paint5_linear" x1="77.5" y1="26" x2="77.5" y2="43" gradientUnits="userSpaceOnUse">
<stop stop-color="#AE397A"/>
<stop offset="1" stop-color="#AE397A" stop-opacity="0.33"/>
</linearGradient>
</defs>
</svg>
