<svg width="205" height="86" viewBox="0 0 205 86" fill="none" xmlns="http://www.w3.org/2000/svg">
<path d="M10.9961 20.957C10.9961 29.2773 14.9219 33.4375 22.7734 33.4375C30.4818 33.4375 34.3359 29.2773 34.3359 20.957C34.3359 12.7409 30.4818 8.63281 22.7734 8.63281C14.9219 8.63281 10.9961 12.7409 10.9961 20.957ZM8.75 21.0742C8.75 11.6081 13.4245 6.875 22.7734 6.875C31.9792 6.875 36.582 11.6081 36.582 21.0742C36.582 30.4883 31.9792 35.1953 22.7734 35.1953C13.4245 35.1953 8.75 30.4883 8.75 21.0742ZM41.875 35V7.07031H44.5117L63.1641 31.5234V7.07031H65.0195V35H63.3594L43.7305 9.375V35H41.875ZM102.539 33.9062C100.156 34.7656 97.6628 35.1953 95.0586 35.1953C85.0716 35.1953 80.0781 30.3451 80.0781 20.6445C80.0781 11.4648 84.9609 6.875 94.7266 6.875C97.3958 6.875 100 7.26562 102.539 8.04688V9.80469C100 9.02344 97.526 8.63281 95.1172 8.63281C86.4583 8.63281 82.1289 12.6367 82.1289 20.6445C82.1289 29.1732 86.3346 33.4375 94.7461 33.4375C96.4648 33.4375 98.3789 33.151 100.488 32.5781V22.3047H102.539V33.9062ZM109.785 20.957C109.785 29.2773 113.711 33.4375 121.562 33.4375C129.271 33.4375 133.125 29.2773 133.125 20.957C133.125 12.7409 129.271 8.63281 121.562 8.63281C113.711 8.63281 109.785 12.7409 109.785 20.957ZM107.539 21.0742C107.539 11.6081 112.214 6.875 121.562 6.875C130.768 6.875 135.371 11.6081 135.371 21.0742C135.371 30.4883 130.768 35.1953 121.562 35.1953C112.214 35.1953 107.539 30.4883 107.539 21.0742ZM141.934 20.957C141.934 29.2773 145.859 33.4375 153.711 33.4375C161.419 33.4375 165.273 29.2773 165.273 20.957C165.273 12.7409 161.419 8.63281 153.711 8.63281C145.859 8.63281 141.934 12.7409 141.934 20.957ZM139.688 21.0742C139.688 11.6081 144.362 6.875 153.711 6.875C162.917 6.875 167.52 11.6081 167.52 21.0742C167.52 30.4883 162.917 35.1953 153.711 35.1953C144.362 35.1953 139.688 30.4883 139.688 21.0742ZM182.578 33.2422C190.326 33.2422 194.199 28.9193 194.199 20.2734C194.199 12.6432 190.326 8.82812 182.578 8.82812H174.863V33.2422H182.578ZM172.812 35V7.07031H182.773C191.888 7.07031 196.445 11.4714 196.445 20.2734C196.445 30.0911 191.823 35 182.578 35H172.812ZM37.5195 80V52.0703H39.5703V64.9609H58.6133V52.0703H60.6641V80H58.6133V66.7188H39.5703V80H37.5195ZM68.2031 65.957C68.2031 74.2773 72.1289 78.4375 79.9805 78.4375C87.6888 78.4375 91.543 74.2773 91.543 65.957C91.543 57.7409 87.6888 53.6328 79.9805 53.6328C72.1289 53.6328 68.2031 57.7409 68.2031 65.957ZM65.957 66.0742C65.957 56.6081 70.6315 51.875 79.9805 51.875C89.1862 51.875 93.7891 56.6081 93.7891 66.0742C93.7891 75.4883 89.1862 80.1953 79.9805 80.1953C70.6315 80.1953 65.957 75.4883 65.957 66.0742ZM99.082 80V52.0703H110.801C116.243 52.0703 118.965 54.6289 118.965 59.7461C118.965 64.7852 114.609 67.9948 105.898 69.375L105.547 67.5C112.969 66.4714 116.68 63.9388 116.68 59.9023C116.68 55.8919 114.609 53.8867 110.469 53.8867H101.133V80H99.082ZM142.109 52.0703V53.8281H125.82V64.9609H141.445V66.7188H125.82V78.2422H142.383V80H123.77V52.0703H142.109ZM147.949 79.0234V76.875C150.879 77.9167 154.108 78.4375 157.637 78.4375C163.483 78.4375 166.406 76.224 166.406 71.7969C166.406 68.5417 164.505 66.9141 160.703 66.9141H154.961C149.766 66.9141 147.168 64.5703 147.168 59.8828C147.168 54.5443 150.977 51.875 158.594 51.875C161.719 51.875 164.746 52.2656 167.676 53.0469V55C164.746 54.0885 161.719 53.6328 158.594 53.6328C152.344 53.6328 149.219 55.7161 149.219 59.8828C149.219 63.2682 151.133 64.9609 154.961 64.9609H160.703C165.872 64.9609 168.457 67.2396 168.457 71.7969C168.457 77.3958 164.85 80.1953 157.637 80.1953C154.108 80.1953 150.879 79.8047 147.949 79.0234Z" fill="url(#paint0_linear)"/>
<rect x="0.5" y="0.5" width="204" height="85" rx="17.5" stroke="#C16D9C"/>
<defs>
<linearGradient id="paint0_linear" x1="102.5" y1="7" x2="102.5" y2="80" gradientUnits="userSpaceOnUse">
<stop stop-color="#AA3777"/>
<stop offset="1" stop-color="#E0007D" stop-opacity="0.34"/>
</linearGradient>
</defs>
</svg>
