<svg width="1230" height="779" viewBox="0 0 1230 779" fill="none" xmlns="http://www.w3.org/2000/svg">
<path d="M363.5 224L372 213.5L363.5 219.5L353.5 228.5L340.5 241L330.5 252.5L318.5 271.5L312.5 282L306.5 297.5L301.5 314L298.5 328.5L297 346V363.5L299.5 376.5L303.5 394L306 396.5L385.5 495.5L407 511.5L422.5 519.5L463 538.5L493.5 548.5C506.833 551.5 533.8 557.5 535 557.5C536.2 557.5 559.167 561.833 570.5 564C579 565 596.4 567 598 567C599.6 567 620 568.667 630 569.5L613 572.5L590 575.5H565.5L539 573.5L513.5 569.5L484.5 564L465.5 558.5L438.5 550L418 540L397.5 528.5L376.5 517L364 503.5L293 414L284.5 401.5L278 375L276.5 352L278 325L286.5 290L301 260L319.5 235L339.5 213.5L351.5 202.5L369 188L370.5 186.5L365 185.5L358.5 183L352 180L347.5 177L343 171.5L338 163.5H320L304.5 161L288.5 156.5L267 148.5L250 136.5L235.5 119L225 100.5L221 86V66L226 47L234.5 31.5L246 19L258 10.5L271 3.5L283 0H298C298.8 0 306.333 1 310 1.5L322.5 6.5L336.5 16L348 27L354.5 40L356.5 53L357.5 68L356.5 79.5L345.5 94.5L334.5 103L320 107.5H305.5L295.5 103L287.5 96.5L281 88L278.5 82.5L276 75L275.5 67L277.5 59L283 55.5L281 61.5L282 70L284 76.5L288.5 87L295.5 94.5L303.5 99.5L313.5 100.5L324 99.5L332 96.5C333.833 94.6667 337.7 90.9 338.5 90.5C339.3 90.1 342.5 85.3333 344 83L348 72V54L346.5 44L341.5 35.5L332 25.5L324 19L314 13L303 10.5L288.5 9.5L275.5 13L264 19L254 28.5L243 41L237 56.5L236 75C236.5 80.6667 237.6 92.1 238 92.5C238.5 93 243.5 104.5 244.5 105C245.3 105.4 253.5 117.833 257.5 124L272.5 135.5L283 141C291 144 307.7 150 310.5 150H338V141L341 129.5L344.5 120.5L352.5 110L365.5 99.5L382 93.5C388.833 93 402.9 92 404.5 92H429L446.5 95L459.5 99.5L469 95L478 89.5L489 83L496 77.5L487 68.5L476 60L464 51.5L451 45.5L436.5 40L418 37L398 38L380.5 41.5L367 45.5L368.5 43.5L372 40C376.833 38.1667 386.8 34.4 388 34C389.5 33.5 416 30.5 417.5 30.5C418.7 30.5 432.667 32.1667 439.5 33L464 40L484 51.5L498 62L508 71.5L514.5 68.5L524 64L535 60L549 55.5L563.5 53L577 51.5H593H604L621 53.5L636 57.5L650.5 54L666 52.5L680.5 51.5L694 53L703 55L719 59L734.5 65.5L751 72.5L755.5 75L756.5 74.5L767.5 65L779 57L794.5 47.5L810 41L826 37L843.5 35.5L859.5 36.5L878.5 40.5L888.5 46L894 54L886 50.5L876 48.5L866.5 46L850.5 44H835L823.5 46L808.5 51.5L792.5 61L781 70L771.5 76.5L766.5 81.5L768 83L780 89.5L791 96L802.5 103.5L805 102.5L810 101L818.5 99.5L828 98.5H842H858L874.5 99.5L886 102.5L900 109.5L911 118.5L916.5 126L921 135L921.5 145.5V156L925.5 156.5H938.5C943.167 156.667 952.7 156.9 953.5 156.5C954.3 156.1 961.5 155.333 965 155L977 151C981.5 148.667 990.6 143.8 991 143C991.5 142 1003.5 134 1004 133.5C1004.4 133.1 1009.17 127.667 1011.5 125L1020.5 106.5L1023.5 95.5V83L1022 71.5L1019 60.5L1011.5 48L1001 35L992.5 27.5L981.5 22L968.5 19.5L955.5 21L943 24L929.5 34L919.5 49.5L915.5 60.5L913.5 73L915 84.5L918.5 92L925.5 99.5L934.5 104.5L946 107C949.667 106.5 957.1 105.5 957.5 105.5C957.9 105.5 962.667 103.5 965 102.5L974 95.5L979.5 87.5L982.5 78.5L981.5 70L979.5 62L978.5 58L982.5 61L987.5 69L989 78.5L987.5 87.5L983.5 95.5L977 102.5L969 109.5L956 115L944.5 115.5L934.5 114L925.5 109.5L916.5 103.5L910 97L906.5 87.5C906 83.8333 905 76.2 905 75V67L906.5 56L910 46L917.5 34L927 24L937.5 17L953 10.5L967.5 9L981.5 10.5L999.5 17L1013 27.5L1026.5 44L1036 64.5L1038.5 83L1034.5 109.5L1025 128.5L1012 144L995 156L972.5 165.5L948.5 170L920 171.5V177.5L939.5 199.5L956.5 219.5L972.5 244L984 269L992.5 293.5L997 313.5L999.5 336L998.5 370L994 399.5L988.5 424L931.5 508L914 528.5L894 545L873.5 560L850.5 573.5L814 590L784.5 602.5L752 611.5L719 619L675.5 624L641.5 625.5H594L554 622L518 616.5L477 605L448.5 594L420 580.5L399.5 567L382 552L368 538L359.5 527.5L356.5 523.5V521H359.5L364 523.5L376.5 532.5L393.5 544L415.5 557.5L448.5 572.5L480 584L513.5 594C526.333 596.667 552.7 602 555.5 602C558.3 602 582.333 604 594 605H641.5L657 604L673 602.5L693.5 600.5L712.5 596.5L730.5 593.5L745.5 590L760.5 586L779 579L795 573.5L812 566C815.667 564 823.2 560 824 560C825 560 837 553.5 837.5 553.5C837.9 553.5 846.333 549.5 850.5 547.5L863 539C869.333 534.833 882.1 526.5 882.5 526.5C882.9 526.5 889.333 521.833 892.5 519.5L904.5 511.5L969 409.5L971.5 401.5C973 394.833 976 381.3 976 380.5C976 379.7 977 365.5 977.5 358.5V337.5L976 317.5L972.5 300L969 288L961 267.5L950.5 249L939.5 232L930.5 219.5L923 210.5L915.5 202L904 190L900.5 190.5C896.667 192.167 889.2 195.6 890 196L907.5 215.5L925 241L936 265L943.5 284.5L949.5 310V334.5L947.5 362.5L941 386L933 407L835 503.5L814 515.5L786 528.5L754 539L719 546.5L680 550L646.5 552H618L586 550L554 544L522 535.5L500.5 528.5L480 519.5L465 511.5L451 503.5L438.5 495.5L339.5 385L335.5 372L331.5 356.5L330 334V316L331.5 299.5L333 290L336.5 279L344 261.5L351.5 244L357 233L363.5 224Z" fill="#E88073"/>
<path d="M364.686 161.533L353.191 162.722C351.662 162.88 350.5 164.168 350.5 165.706V165.757C350.5 166.553 350.816 167.316 351.379 167.879L355.222 171.722C355.407 171.907 355.614 172.066 355.84 172.197L364.488 177.204C364.826 177.399 365.199 177.527 365.586 177.58L376 179H384.063C384.673 179 385.269 178.814 385.771 178.467L398 170L420.5 157.5L445 145.5L460.5 138.5C465 136.833 474.4 133.4 476 133C477.508 132.623 482.983 131.92 485.98 131.562C486.325 131.52 486.659 131.421 486.97 131.265L488.549 130.475C490.131 129.684 490.689 127.703 489.751 126.202L489.471 125.753C489.163 125.262 488.721 124.87 488.195 124.624L481.5 121.5L472.247 116.143C472.083 116.048 471.91 115.969 471.73 115.906L462.049 112.539C461.084 112.203 460.014 112.382 459.21 113.013L453.5 117.5L438.5 127L420.5 136L398 148.5L382 156L365.301 161.403C365.101 161.467 364.895 161.511 364.686 161.533Z" fill="white"/>
<path d="M348.418 133.632L346.773 146.386C346.609 147.652 347.265 148.882 348.406 149.453L349.637 150.069C350.198 150.349 350.833 150.447 351.453 150.348L362.69 148.55C362.896 148.517 363.098 148.462 363.293 148.387L376 143.5L394 136L409.5 129C415.667 125.833 428.2 119.4 429 119C429.558 118.721 434.686 115.023 439.434 111.566C441.554 110.023 440.804 106.701 438.228 106.21L434.5 105.5C429.333 105 418.7 104 417.5 104H400.5L382.495 105.46C382.167 105.486 381.846 105.567 381.544 105.697L367.39 111.831C367.131 111.943 366.89 112.091 366.672 112.271L355.889 121.178C355.632 121.391 355.411 121.646 355.237 121.931L348.831 132.456C348.613 132.815 348.472 133.215 348.418 133.632Z" fill="white"/>
<path d="M484.821 96.6389L479.426 100.835C477.77 102.123 477.915 104.666 479.735 105.71C482.594 107.35 485.695 109 486.5 109C487.7 109 499 117.333 504.5 121.5L522.5 134L536.322 143.873C536.441 143.958 536.565 144.033 536.694 144.1L553.527 152.757C553.84 152.918 554.178 153.022 554.527 153.066L566 154.5H568.757C571.43 154.5 572.769 151.269 570.879 149.379L569.5 148L560.5 138.5L549.5 129L535 114C531.833 111.5 525.4 106.2 525 105C524.6 103.8 516.167 95.5 512 91.5L506.198 86.4712C505.191 85.5991 503.731 85.4946 502.61 86.2147L497.5 89.5L485.197 96.3895C485.066 96.463 484.94 96.5464 484.821 96.6389Z" fill="white"/>
<path d="M606.226 152.064L599.231 153.71C598.444 153.896 597.615 153.755 596.933 153.321L592.5 150.5L583.205 144.14C583.068 144.047 582.94 143.943 582.821 143.828L570.5 132C568.664 130.023 570.591 126.883 573.185 127.624L578 129C583.5 131.167 594.6 135.5 595 135.5C595.358 135.5 607.462 141.36 615.384 145.223C616.513 145.773 616.577 147.354 615.5 148L606.757 151.886C606.586 151.962 606.408 152.022 606.226 152.064Z" fill="white"/>
<path d="M531 95.5L517.086 80.5923C517.029 80.5309 516.977 80.4649 516.93 80.395C516.429 79.6435 516.676 78.6244 517.466 78.1858L520.5 76.5L529 72.5L536.809 68.5953C536.936 68.5319 537.068 68.4775 537.202 68.4326L547.5 65C552.5 63.8333 562.6 61.5 563 61.5C563.4 61.5 570.5 60.1667 574 59.5L583.5 59H597.5C601.167 59.5 608.6 60.5 609 60.5C609.164 60.5 610.228 60.8915 611.622 61.4339C614.063 62.3834 614.136 65.7833 611.759 66.8806L611.5 67L601.5 72.5L590 79.5L576 89L561.5 100L551.156 110.344C550.183 111.317 548.672 111.503 547.491 110.795L547.365 110.719C547.123 110.574 546.902 110.395 546.71 110.188L540.5 103.5L531 95.5Z" fill="white"/>
<path d="M626.538 69.6539L618 72.5L608 77L594 84.5L579 94.5L567 104.5L562.775 107.457C562.271 107.81 561.887 108.311 561.676 108.89L560.555 111.974C560.209 112.926 560.366 113.989 560.974 114.799L562.438 116.75C562.804 117.238 563.31 117.603 563.889 117.796L570.5 120L583 124L594.798 127.933C594.932 127.977 595.064 128.032 595.191 128.095L603 132L613 135.5L621 138.5L627.367 141.683C627.783 141.892 628.242 142 628.708 142H633.422C633.804 142 634.182 141.927 634.536 141.785L639 140L646.5 136.5L656.256 132.11C656.418 132.037 656.587 131.978 656.76 131.935L668.5 129L682.5 125C686.333 124.333 694.2 123 695 123C695.711 123 698.58 120.894 700.38 119.489C700.789 119.17 701.101 118.747 701.294 118.266L702.5 115.251C702.818 114.455 702.781 113.561 702.398 112.795L701.218 110.435C701.074 110.147 700.884 109.884 700.656 109.656L696 105L688.5 98.5L679.5 92L668.5 84.5L660 79.5L650.5 74.5L641.656 69.8452C641.225 69.6185 640.746 69.5 640.259 69.5H634H627.487C627.164 69.5 626.844 69.552 626.538 69.6539Z" fill="white"/>
<path d="M723 103.5L715.62 110.492C714.44 111.61 712.584 111.584 711.435 110.435L704.5 103.5L694 94L684 86.5L670.5 77.5L651.5 68L646.608 65.0648C645.478 64.387 645.542 62.729 646.72 62.1398C646.905 62.0474 647.106 61.9901 647.311 61.9708L663 60.5L679.152 59.5211C679.383 59.5071 679.615 59.5199 679.843 59.5592L694 62L715 68C720.5 70.3333 731.7 75.1 732.5 75.5C733.168 75.834 738.995 78.5153 743.229 80.4583C744.254 80.9287 744.402 82.3234 743.5 83L735.5 90L723 103.5Z" fill="white"/>
<path d="M623 153.5L615.358 155.888C615.12 155.962 614.893 156.066 614.681 156.197L612.705 157.413C610.788 158.592 610.804 161.382 612.733 162.54L613.5 163L620.15 165.85C620.383 165.95 620.626 166.019 620.876 166.058L626.773 166.965C626.924 166.988 627.075 167 627.228 167H633.5C634.611 167 638.668 166.428 640.982 166.079C641.326 166.027 641.656 165.915 641.961 165.748L647 163L647.326 162.783C649.214 161.524 649.075 158.707 647.074 157.639L644 156L634.536 152.215C634.182 152.073 633.804 152 633.422 152H631.5H629.842C629.615 152 629.388 152.026 629.167 152.077L623 153.5Z" fill="white"/>
<path d="M651.5 149.5L646.316 147.107C645.625 146.788 645.382 145.928 645.804 145.294C645.932 145.102 646.112 144.949 646.322 144.854L651.5 142.5L661.5 139L675 134.5L686.5 130.5L688.848 129.786C691.537 128.967 694.014 132.743 691.5 134C690.7 134.4 683.833 140.833 680.5 144L673 149.5L667.764 153.527C666.974 154.135 665.933 154.311 664.987 153.996L663.5 153.5L658 152L651.5 149.5Z" fill="white"/>
<path d="M691.785 149.151L686.915 152.559C685.4 153.62 686.151 156 688 156L697 155.5L705.286 154.525C705.428 154.508 705.57 154.481 705.708 154.444L712.66 152.591C712.886 152.53 713.102 152.445 713.308 152.335C715.579 151.127 719.854 149 721 149C722.2 149 727.5 145.667 730 144L739 138C739.628 137.581 741.016 136.412 742.458 135.155C744.058 133.76 743.514 131.171 741.5 130.5L734 128L725.793 125.586C725.598 125.529 725.398 125.492 725.196 125.475L720.606 125.092C719.892 125.033 719.181 125.23 718.6 125.65L710.695 131.359C710.565 131.453 710.445 131.555 710.332 131.668C707.275 134.721 701.285 140.607 700.5 141C699.719 141.39 694.747 146.258 692.185 148.816C692.061 148.939 691.928 149.05 691.785 149.151Z" fill="white"/>
<path d="M747 99.5L740.904 105.596C740.003 106.497 740.317 108.027 741.5 108.5L749.5 112L759 115.5L765.071 118.102C765.674 118.36 766.344 118.414 766.98 118.255L767.636 118.091C767.878 118.031 768.111 117.94 768.331 117.822L774.5 114.5C776.667 113.333 781.2 111 782 111C782.545 111 784.511 110.073 786.289 109.166C787.331 108.634 787.436 107.202 786.5 106.5L781.172 102.625C781.058 102.542 780.937 102.467 780.812 102.4L772.5 98C769.667 96.1667 763.9 92.4 763.5 92C763.225 91.7246 761.511 90.8014 759.927 89.981C758.78 89.3873 757.384 89.6159 756.471 90.529L755.5 91.5L747 99.5Z" fill="white"/>
<path d="M829.685 109.068L821.996 110.74C820.223 111.125 819.289 113.077 820.1 114.7C820.36 115.22 820.777 115.646 821.292 115.917L830 120.5L844 129L856 136L869 142L885.5 149.5L896.09 153.832C896.362 153.943 896.649 154.014 896.941 154.042L907 155L908.589 155.159C910.395 155.339 911.946 153.888 911.886 152.074L911.515 140.935C911.505 140.647 911.454 140.361 911.362 140.087L909.143 133.428C909.048 133.144 908.912 132.876 908.738 132.633L904.307 126.429C904.104 126.145 903.853 125.899 903.565 125.701L896 120.5L890.873 115.839C890.626 115.615 890.343 115.433 890.037 115.301L880.424 111.182C880.143 111.061 879.845 110.985 879.541 110.954L865 109.5L847.5 109H830.322C830.108 109 829.894 109.023 829.685 109.068Z" fill="white"/>
<path d="M788.082 120.834L786.992 121.707C785.326 123.039 785.544 125.636 787.409 126.672L788 127L798.5 132.5L808.5 137.5L824 145.5L839.814 154.89C839.938 154.963 840.056 155.045 840.168 155.136L853 165.5L866.5 174.5L872.778 178.846C872.926 178.948 873.064 179.064 873.191 179.191L880.439 186.439C881.107 187.107 882.05 187.421 882.985 187.288L884.706 187.042C884.901 187.014 885.094 186.967 885.28 186.901L893.273 184.08C893.424 184.027 893.571 183.961 893.711 183.885L899 181L904.886 178.284C905.29 178.097 905.648 177.822 905.933 177.48L908 175L909.034 173.449C909.631 172.553 909.703 171.406 909.221 170.443L909.056 170.111C908.7 169.4 908.076 168.858 907.32 168.612C905.763 168.107 903.812 167.5 903.5 167.5C903.1 167.5 897.667 166.5 895 166L883 162.5L875 159.5L865.5 155.5L847.5 145.5L838 140.5L825 133L813.5 124.5L802.14 117.23C801.415 116.766 800.526 116.635 799.699 116.872L797.5 117.5L789.008 120.331C788.672 120.443 788.359 120.613 788.082 120.834Z" fill="white"/>
<path d="M538.5 155L519.5 143.5C517.833 143.333 514.4 143 514 143C513.6 143 509.833 144 508 144.5L488 151.5L467.5 159.5L450.5 169.5L429.5 183.5L412.5 198L392 220L377 240L364.5 263.5L358 282L353.5 304.5L353 325.5L354.5 351.5C356 357.667 359.1 370.1 359.5 370.5C359.9 370.9 364.667 383 367 389L461 490.5L477 499L491 506.5L514.5 515L540 524.5L566 531.5L598.5 536.5L633.5 537.5H656.5L679.5 535L701.5 532L733 524L744 521L767 514L787 505.5L809.5 494.5L819.5 478.5L919 389.5L921.5 381.5L924.5 369L929.5 348.5L931 322.5L929.5 308.5C928.667 303.333 926.9 292.6 926.5 291C926.1 289.4 924 282.667 923 279.5L917.5 266L910.5 253.5L902 240L894 228L883 215L873.5 205L863.5 196.5L841.5 179.5L830 171.5L819.5 164.5L795.5 151.5L783 145L759.5 136L753.5 139.5L741.5 148L727.5 156.5L715 162.5L693.5 165L672.5 163.5L655 170.5L631.5 174L610 170.5L594 161.5L580.5 163.5H561.5L538.5 155Z" fill="#EDC8B8"/>
<mask id="path-5-outside-1" maskUnits="userSpaceOnUse" x="0" y="342.5" width="1230" height="436" fill="black">
<rect fill="white" y="342.5" width="1230" height="436"/>
<path d="M36 624L18.5 648L17 651L28 645L39.5 641.5L58 637.5C63.6667 636.667 75.5 635 77.5 635H88.5L104 637.5L118.5 641.5L114.5 646.5L106.5 662.5L97 682L91 701L87 722.5V741.5L95 732.5L102.5 725L108.5 718L116.5 708.5C120.167 706.167 127.8 701.1 129 699.5C130.5 697.5 144 691.5 146.5 690.5C148.5 689.7 155.333 685.5 158.5 683.5L170 680.5C172 680.667 178.4 680.1 188 676.5C197.6 672.9 207 672.667 210.5 673H242L259 674.5L277.5 678L297 683.5L311.5 687L324 691C326.667 691.667 332.3 693 333.5 693C335 693 341.5 694.5 343 694.5C344.5 694.5 347.5 695 351 694.5C353.8 694.1 355.833 693.333 356.5 693C358.333 691.833 362.3 689.4 363.5 689C365 688.5 369 686 370 685C370.8 684.2 373 681.667 374 680.5C374.5 678.833 375.8 675 377 673C378.2 671 378.5 667.5 378.5 666V647.5L377 632.5V596.5C376.833 590 376.6 576.7 377 575.5C377.4 574.3 375.167 565 374 560.5L366.5 548C363.667 546 357.7 542 356.5 542C355.3 542 348 538.333 344.5 536.5L330.5 533L319 531H306L298 530C298.667 529.833 300.3 529.2 301.5 528C302.7 526.8 311.667 524.167 316 523L334 519C339.667 518 353.5 515.3 363.5 512.5C373.5 509.7 384 507.667 388 507L431 501C442.167 500 464.8 497.8 466 497C467.2 496.2 487.5 494.333 497.5 493.5L540 491H575.5L624.5 489.5L692 491L725.5 493L777 498.5L796.5 501.5L822.5 504.5L851 509L876.5 513.5L899 518.5L926.5 525.5L939.5 529.5L955.5 535H947.5L933.5 536L924 538L912 542.5L899 548L889.5 553.5L884.5 558.5L880.5 563.5L878 568.5L876.5 573.5V677L877.5 686.5L880 695L885.5 705.5L893 712.5L902.5 717L913 718C916.5 717.667 923.6 717 924 717C924.5 717 936.5 715 938.5 714.5C940.1 714.1 948.5 712.333 952.5 711.5L968 708L985.5 702.5L995.5 701.5L1009.5 699L1022 698H1047.5L1060.5 699L1075 701.5L1092 707L1109.5 715C1113.67 717.667 1122.2 723.1 1123 723.5C1123.8 723.9 1130 729.333 1133 732L1142.5 741.5L1150 750L1156.5 758.5L1161 762.5V760.5L1160 752L1158 743L1156.5 736L1155 727.5L1153 718L1150 707L1148.5 700L1146.5 695L1144 687.5L1139 679L1134.5 672.5L1131.5 668.5L1129.5 664L1131.5 662L1137 660.5L1143 659L1152 659.5L1163.5 659L1179.5 659.5L1190 660.5L1207 663.5L1212 666.5L1215 669L1214.5 667.5L1213.5 663.5L1211.5 656.5L1208 649.5L1202 642L1192 632L1182.5 623.5L1174 617L1164 610L1145 600.5L1133 596L1119 592L1101 585.5L1082.5 580.5L1072 578L1067.5 577V515.5L1066.5 493V483.5L1065.5 478L1063.5 473L1060.5 467L1048.5 453L1034 441.5L1013.5 427.5L991 417L971 408L946 399L922 391L888.5 381.5L856.5 374L802 363.5L760 357.5L725 354L686.5 351.5L640.5 349.5H591.5L546.5 351L501.5 354.5L458.5 359.5L422.5 365L381 374L353 380.5L330 386.5L309.5 393L284 402L263.5 411L235 424L217.5 434.5L203.5 445L191 457.5L183.5 468.5L180.5 478.5L181 514L180.5 554.5L170 556.5L140.5 562L111.5 573L82 588L55 606.5L36 624Z"/>
</mask>
<path d="M36 624L18.5 648L17 651L28 645L39.5 641.5L58 637.5C63.6667 636.667 75.5 635 77.5 635H88.5L104 637.5L118.5 641.5L114.5 646.5L106.5 662.5L97 682L91 701L87 722.5V741.5L95 732.5L102.5 725L108.5 718L116.5 708.5C120.167 706.167 127.8 701.1 129 699.5C130.5 697.5 144 691.5 146.5 690.5C148.5 689.7 155.333 685.5 158.5 683.5L170 680.5C172 680.667 178.4 680.1 188 676.5C197.6 672.9 207 672.667 210.5 673H242L259 674.5L277.5 678L297 683.5L311.5 687L324 691C326.667 691.667 332.3 693 333.5 693C335 693 341.5 694.5 343 694.5C344.5 694.5 347.5 695 351 694.5C353.8 694.1 355.833 693.333 356.5 693C358.333 691.833 362.3 689.4 363.5 689C365 688.5 369 686 370 685C370.8 684.2 373 681.667 374 680.5C374.5 678.833 375.8 675 377 673C378.2 671 378.5 667.5 378.5 666V647.5L377 632.5V596.5C376.833 590 376.6 576.7 377 575.5C377.4 574.3 375.167 565 374 560.5L366.5 548C363.667 546 357.7 542 356.5 542C355.3 542 348 538.333 344.5 536.5L330.5 533L319 531H306L298 530C298.667 529.833 300.3 529.2 301.5 528C302.7 526.8 311.667 524.167 316 523L334 519C339.667 518 353.5 515.3 363.5 512.5C373.5 509.7 384 507.667 388 507L431 501C442.167 500 464.8 497.8 466 497C467.2 496.2 487.5 494.333 497.5 493.5L540 491H575.5L624.5 489.5L692 491L725.5 493L777 498.5L796.5 501.5L822.5 504.5L851 509L876.5 513.5L899 518.5L926.5 525.5L939.5 529.5L955.5 535H947.5L933.5 536L924 538L912 542.5L899 548L889.5 553.5L884.5 558.5L880.5 563.5L878 568.5L876.5 573.5V677L877.5 686.5L880 695L885.5 705.5L893 712.5L902.5 717L913 718C916.5 717.667 923.6 717 924 717C924.5 717 936.5 715 938.5 714.5C940.1 714.1 948.5 712.333 952.5 711.5L968 708L985.5 702.5L995.5 701.5L1009.5 699L1022 698H1047.5L1060.5 699L1075 701.5L1092 707L1109.5 715C1113.67 717.667 1122.2 723.1 1123 723.5C1123.8 723.9 1130 729.333 1133 732L1142.5 741.5L1150 750L1156.5 758.5L1161 762.5V760.5L1160 752L1158 743L1156.5 736L1155 727.5L1153 718L1150 707L1148.5 700L1146.5 695L1144 687.5L1139 679L1134.5 672.5L1131.5 668.5L1129.5 664L1131.5 662L1137 660.5L1143 659L1152 659.5L1163.5 659L1179.5 659.5L1190 660.5L1207 663.5L1212 666.5L1215 669L1214.5 667.5L1213.5 663.5L1211.5 656.5L1208 649.5L1202 642L1192 632L1182.5 623.5L1174 617L1164 610L1145 600.5L1133 596L1119 592L1101 585.5L1082.5 580.5L1072 578L1067.5 577V515.5L1066.5 493V483.5L1065.5 478L1063.5 473L1060.5 467L1048.5 453L1034 441.5L1013.5 427.5L991 417L971 408L946 399L922 391L888.5 381.5L856.5 374L802 363.5L760 357.5L725 354L686.5 351.5L640.5 349.5H591.5L546.5 351L501.5 354.5L458.5 359.5L422.5 365L381 374L353 380.5L330 386.5L309.5 393L284 402L263.5 411L235 424L217.5 434.5L203.5 445L191 457.5L183.5 468.5L180.5 478.5L181 514L180.5 554.5L170 556.5L140.5 562L111.5 573L82 588L55 606.5L36 624Z" fill="#EDE2DC"/>
<path d="M36 624L18.5 648L17 651L28 645L39.5 641.5L58 637.5C63.6667 636.667 75.5 635 77.5 635H88.5L104 637.5L118.5 641.5L114.5 646.5L106.5 662.5L97 682L91 701L87 722.5V741.5L95 732.5L102.5 725L108.5 718L116.5 708.5C120.167 706.167 127.8 701.1 129 699.5C130.5 697.5 144 691.5 146.5 690.5C148.5 689.7 155.333 685.5 158.5 683.5L170 680.5C172 680.667 178.4 680.1 188 676.5C197.6 672.9 207 672.667 210.5 673H242L259 674.5L277.5 678L297 683.5L311.5 687L324 691C326.667 691.667 332.3 693 333.5 693C335 693 341.5 694.5 343 694.5C344.5 694.5 347.5 695 351 694.5C353.8 694.1 355.833 693.333 356.5 693C358.333 691.833 362.3 689.4 363.5 689C365 688.5 369 686 370 685C370.8 684.2 373 681.667 374 680.5C374.5 678.833 375.8 675 377 673C378.2 671 378.5 667.5 378.5 666V647.5L377 632.5V596.5C376.833 590 376.6 576.7 377 575.5C377.4 574.3 375.167 565 374 560.5L366.5 548C363.667 546 357.7 542 356.5 542C355.3 542 348 538.333 344.5 536.5L330.5 533L319 531H306L298 530C298.667 529.833 300.3 529.2 301.5 528C302.7 526.8 311.667 524.167 316 523L334 519C339.667 518 353.5 515.3 363.5 512.5C373.5 509.7 384 507.667 388 507L431 501C442.167 500 464.8 497.8 466 497C467.2 496.2 487.5 494.333 497.5 493.5L540 491H575.5L624.5 489.5L692 491L725.5 493L777 498.5L796.5 501.5L822.5 504.5L851 509L876.5 513.5L899 518.5L926.5 525.5L939.5 529.5L955.5 535H947.5L933.5 536L924 538L912 542.5L899 548L889.5 553.5L884.5 558.5L880.5 563.5L878 568.5L876.5 573.5V677L877.5 686.5L880 695L885.5 705.5L893 712.5L902.5 717L913 718C916.5 717.667 923.6 717 924 717C924.5 717 936.5 715 938.5 714.5C940.1 714.1 948.5 712.333 952.5 711.5L968 708L985.5 702.5L995.5 701.5L1009.5 699L1022 698H1047.5L1060.5 699L1075 701.5L1092 707L1109.5 715C1113.67 717.667 1122.2 723.1 1123 723.5C1123.8 723.9 1130 729.333 1133 732L1142.5 741.5L1150 750L1156.5 758.5L1161 762.5V760.5L1160 752L1158 743L1156.5 736L1155 727.5L1153 718L1150 707L1148.5 700L1146.5 695L1144 687.5L1139 679L1134.5 672.5L1131.5 668.5L1129.5 664L1131.5 662L1137 660.5L1143 659L1152 659.5L1163.5 659L1179.5 659.5L1190 660.5L1207 663.5L1212 666.5L1215 669L1214.5 667.5L1213.5 663.5L1211.5 656.5L1208 649.5L1202 642L1192 632L1182.5 623.5L1174 617L1164 610L1145 600.5L1133 596L1119 592L1101 585.5L1082.5 580.5L1072 578L1067.5 577V515.5L1066.5 493V483.5L1065.5 478L1063.5 473L1060.5 467L1048.5 453L1034 441.5L1013.5 427.5L991 417L971 408L946 399L922 391L888.5 381.5L856.5 374L802 363.5L760 357.5L725 354L686.5 351.5L640.5 349.5H591.5L546.5 351L501.5 354.5L458.5 359.5L422.5 365L381 374L353 380.5L330 386.5L309.5 393L284 402L263.5 411L235 424L217.5 434.5L203.5 445L191 457.5L183.5 468.5L180.5 478.5L181 514L180.5 554.5L170 556.5L140.5 562L111.5 573L82 588L55 606.5L36 624Z" stroke="#8E8D89" stroke-width="14" mask="url(#path-5-outside-1)"/>
<path d="M873.647 572.497L873.497 572.997L873.5 573.518L874 670.018L874.034 676.528L879.445 672.91L885.428 668.91L885.967 668.549L886.341 668.019L894.543 656.409L907.337 645.955L919.717 639.748L934.601 634.934L950.512 633H959.541L974.113 634.948L989.379 638.405L1005.3 642.395L1005.4 642.42L1005.5 642.44C1008.15 642.938 1014.66 644 1018.61 644H1030.08H1030.65L1031.19 643.819C1031.83 643.605 1032.99 643.262 1034.26 642.977C1035.56 642.681 1036.76 642.5 1037.56 642.5C1039.75 642.5 1042.5 641.664 1044.64 640.818C1045.78 640.368 1046.9 639.856 1047.86 639.332C1048.75 638.848 1049.77 638.216 1050.51 637.471C1051.26 636.722 1053.36 634.613 1055.46 632.571C1056.51 631.548 1057.55 630.557 1058.4 629.766C1058.83 629.371 1059.2 629.04 1059.49 628.786C1059.82 628.505 1059.95 628.407 1059.95 628.41C1061.06 627.669 1061.52 626.531 1061.67 626.156C1061.91 625.582 1062.08 624.95 1062.21 624.361C1062.48 623.165 1062.7 621.699 1062.87 620.224C1063.21 617.249 1063.41 613.855 1063.5 611.634L1063.51 611.3L1063.46 610.969L1061.46 597.969L1061.37 597.319L1061.04 596.75L1055.55 587.25L1055.39 586.975L1055.19 586.734L1043.72 573.234L1043.41 572.873L1043.02 572.606L1029.06 563.106L1029.04 563.091L1029.01 563.076L1013.06 552.576L1012.87 552.453L1012.67 552.355L993.223 542.855L993.058 542.775L992.886 542.712L970.946 534.712L970.718 534.629L970.482 534.578L956.52 531.578L956.157 531.5H955.785H947.807H947.681L947.556 531.509L933.595 532.509L933.356 532.526L933.122 532.575L923.648 534.575L923.388 534.63L923.139 534.724L911.171 539.224L911.103 539.25L911.036 539.278L898.072 544.778L897.871 544.863L897.681 544.973L888.207 550.473L887.81 550.704L887.486 551.029L882.5 556.029L882.363 556.166L882.242 556.317L878.253 561.317L878.022 561.607L877.857 561.938L875.364 566.938L875.229 567.208L875.143 567.497L873.647 572.497Z" fill="#BBB2B5" stroke="#8E8D89" stroke-width="7"/>
<path d="M298.434 526.527L298.089 526.484L297.741 526.51L284.241 527.51L284.082 527.521L283.925 527.548L271.925 529.548L271.637 529.595L271.362 529.69L255.362 535.19L255.204 535.244L255.052 535.314L238.552 542.814L238.493 542.841L238.435 542.87L221.435 551.37L221.2 551.487L220.986 551.638L207.486 561.138L207.266 561.292L207.072 561.479L193.572 574.479L193.385 574.66L193.226 574.866L183.226 587.866L182.81 588.406L182.628 589.063L180.128 598.063L180 598.523V599V608V608.184L180.019 608.366L181.019 617.866L181.072 618.367L181.264 618.833L184.764 627.333L184.973 627.841L185.328 628.261L190.828 634.761L191.292 635.309L191.935 635.63L199.935 639.63L200.194 639.76L200.471 639.845L213.471 643.845L213.974 644H214.5H224.5H225.478L226.314 643.493L242.338 633.782L256.686 630.434L271.492 627.966L288.308 625.988L304.973 625.008L318.042 625.976L328.206 627.912L341.962 631.706L350.451 637.837L350.472 637.853L350.493 637.867L360.295 644.729L367.003 650.958L371.382 655.823L374.866 659.805L380.18 665.878L380.983 657.848L381.983 647.848L382.017 647.5L381.983 647.152L380.5 632.325V596.5V596.455L380.499 596.41C380.416 593.174 380.316 588.247 380.287 583.989C380.273 581.856 380.276 579.916 380.307 578.447C380.323 577.708 380.344 577.123 380.371 576.705C380.382 576.53 380.393 576.409 380.401 576.331C380.511 575.9 380.534 575.526 380.542 575.321C380.554 575.02 380.543 574.724 380.526 574.464C380.491 573.941 380.416 573.35 380.323 572.749C380.136 571.538 379.841 570.044 379.509 568.501C378.841 565.401 377.979 561.901 377.388 559.622L377.261 559.133L377.001 558.699L369.501 546.199L369.121 545.566L368.518 545.141C367.068 544.117 364.812 542.578 362.745 541.284C361.718 540.64 360.686 540.025 359.8 539.559C359.361 539.328 358.899 539.102 358.457 538.926C358.194 538.821 357.603 538.588 356.894 538.52C356.884 538.516 356.872 538.512 356.86 538.508C356.659 538.444 356.354 538.33 355.939 538.16C355.117 537.823 354.048 537.338 352.864 536.776C350.506 535.656 347.848 534.303 346.124 533.4L345.754 533.206L345.349 533.105L331.349 529.605L331.225 529.574L331.1 529.552L319.6 527.552L319.302 527.5H319H306.218L298.434 526.527ZM380.413 576.239C380.413 576.24 380.412 576.251 380.409 576.27C380.412 576.247 380.413 576.237 380.413 576.239ZM357.02 538.555C357.021 538.555 357.008 538.553 356.98 538.545C357.006 538.551 357.02 538.554 357.02 538.555Z" fill="#BBB2B5" stroke="#8E8D89" stroke-width="7"/>
<path d="M320.903 425.855C325.949 424.815 329.194 423.521 330.638 421.972L332.059 420.459L333.792 421.322L337.748 437.118L334.863 438.839L333.898 436.879C332.866 434.777 331.848 433.235 330.844 432.253C329.84 431.271 328.685 430.696 327.38 430.527C326.059 430.298 324.287 430.413 322.065 430.872L314.316 432.469C312.694 432.803 311.514 433.265 310.778 433.855C310.086 434.373 309.71 435.139 309.648 436.153C309.586 437.167 309.793 438.625 310.27 440.529L320.373 480.867C320.85 482.771 321.373 484.228 321.942 485.237C322.555 486.174 323.32 486.83 324.235 487.204C325.15 487.579 326.478 487.837 328.219 487.978L330.516 488.068L330.194 491.325L310.371 495.411L308.842 494.225L309.611 492.377C310.606 490.045 311.136 487.746 311.2 485.48C311.31 483.142 310.917 480.189 310.023 476.619L302.96 448.418C302.08 444.908 301.035 442.12 299.823 440.055C298.656 437.918 297.075 436.023 295.082 434.369L293.508 433.004L294.322 431.335L320.903 425.855Z" fill="#AB3B61"/>
<path d="M344.231 452.732C342.926 446.363 342.875 440.467 344.079 435.042C345.27 429.558 347.802 424.966 351.674 421.267C355.595 417.498 360.821 415.063 367.353 413.961C373.885 412.86 379.696 413.434 384.787 415.684C389.926 417.863 394.138 421.318 397.422 426.048C400.754 430.707 403.073 436.222 404.378 442.591C405.683 448.96 405.703 454.862 404.439 460.296C403.235 465.721 400.667 470.287 396.734 473.996C392.862 477.695 387.66 480.095 381.128 481.197C374.596 482.298 368.761 481.759 363.621 479.58C358.543 477.39 354.368 473.961 351.096 469.291C347.824 464.621 345.536 459.101 344.231 452.732ZM394.545 444.528C393.658 440.202 392.131 435.953 389.962 431.781C387.841 427.539 384.992 424.165 381.413 421.661C377.821 419.096 373.637 418.217 368.859 419.022C364.565 419.746 361.116 421.695 358.513 424.869C355.958 427.973 354.319 431.886 353.597 436.607C352.875 441.329 353.068 446.394 354.176 451.801C355.247 457.029 356.963 461.588 359.325 465.479C361.686 469.37 364.595 472.267 368.051 474.171C371.567 476.064 375.442 476.654 379.676 475.94C383.909 475.227 387.316 473.378 389.896 470.394C392.536 467.4 394.242 463.663 395.013 459.182C395.772 454.64 395.616 449.756 394.545 444.528Z" fill="#AB3B61"/>
<path d="M433.948 406.325C437.902 405.813 441.521 405.932 444.804 406.682C448.138 407.363 450.819 408.623 452.846 410.462C454.925 412.234 456.169 414.422 456.579 417.027C457.065 420.117 456.522 422.784 454.951 425.027C453.441 427.263 451.287 428.562 448.489 428.924C447.212 429.089 446.516 428.809 446.401 428.082C446.373 427.9 446.535 427.353 446.888 426.442C447.302 425.523 447.611 424.525 447.814 423.448C448.068 422.302 448.076 420.972 447.837 419.457C447.39 416.609 445.963 414.445 443.558 412.963C441.152 411.482 438.216 410.966 434.749 411.414C430.248 411.997 426.787 413.867 424.367 417.024C421.946 420.181 420.441 424.024 419.85 428.552C419.259 433.079 419.354 437.827 420.135 442.796C420.936 447.885 422.456 452.418 424.695 456.393C426.995 460.361 429.83 463.395 433.202 465.493C436.563 467.53 440.221 468.293 444.175 467.782C448.068 467.278 451.334 466.144 453.973 464.38C456.603 462.556 458.626 460.223 460.041 457.381C460.185 457.115 460.379 456.967 460.622 456.935C461.17 456.864 461.826 457.088 462.59 457.608C463.406 458.059 463.856 458.557 463.942 459.102C463.971 459.284 463.918 459.538 463.783 459.864C459.762 468.236 453.281 473.001 444.34 474.159C438.014 474.978 432.428 474.186 427.582 471.784C422.735 469.383 418.817 465.779 415.826 460.973C412.826 456.106 410.826 450.492 409.825 444.13C408.815 437.708 409.004 431.81 410.394 426.437C411.773 421.004 414.419 416.519 418.332 412.984C422.295 409.379 427.501 407.16 433.948 406.325Z" fill="#AB3B61"/>
<path d="M510.15 413.264C509.283 411.066 508.422 409.453 507.564 408.424C506.761 407.329 505.725 406.625 504.455 406.312C503.179 405.939 501.441 405.855 499.243 406.06L495.121 406.444C493.838 406.564 493.035 407.101 492.711 408.055C492.441 408.942 492.469 410.818 492.794 413.682L497.478 455.002C497.796 457.805 498.414 459.718 499.332 460.741C500.25 461.764 501.908 462.502 504.304 462.956L506.473 463.308L505.726 466.519L485.666 468.391L484.309 467.039L485.313 465.283C486.612 463.129 487.439 460.896 487.794 458.584C488.149 456.273 488.119 453.288 487.705 449.632L483.725 414.529C483.4 411.664 482.976 409.825 482.452 409.012C481.982 408.132 481.105 407.752 479.823 407.872L475.701 408.256C473.502 408.461 471.82 408.865 470.654 409.466C469.481 410.007 468.594 410.89 467.992 412.116C467.445 413.276 466.994 415.012 466.639 417.324L466.327 419.478L463.089 418.671L461.244 402.399L462.575 401.074L464.358 402.109C466.213 403.229 469.767 403.544 475.019 403.054L498.744 400.841C503.995 400.351 507.404 399.386 508.969 397.947L510.483 396.604L512.083 397.656L513.928 413.928L510.938 415.315L510.15 413.264Z" fill="#AB3B61"/>
<path d="M538.214 452.051C538.355 454.009 538.615 455.468 538.992 456.428C539.369 457.389 539.968 458.029 540.791 458.348C541.675 458.664 542.943 458.773 544.596 458.675L554.515 458.084C556.719 457.953 558.417 457.636 559.611 457.135C560.8 456.573 561.691 455.721 562.285 454.58C562.936 453.374 563.485 451.621 563.934 449.321L564.332 447.178L567.534 448.093L568.67 463.784L566.906 464.902L566.098 463.937C565.363 463.12 564.046 462.769 562.148 462.882L523.485 465.185L522.262 462.309L524.151 461.644C526.367 460.836 527.805 459.89 528.465 458.806C529.124 457.723 529.359 455.866 529.168 453.235L526.571 417.357C526.306 413.687 525.785 410.738 525.009 408.511C524.232 406.284 523.006 404.207 521.329 402.279L520.016 400.699L521.103 399.159L549.206 397.485C554.471 397.172 557.914 396.321 559.536 394.935L561.102 393.643L562.658 394.749L563.84 411.082L560.798 412.369L560.094 410.291C559.318 408.064 558.522 406.422 557.708 405.365C556.95 404.243 555.944 403.504 554.688 403.149C553.428 402.732 551.696 402.59 549.492 402.721L540.584 403.252C538.931 403.35 537.689 403.608 536.859 404.027C536.089 404.441 535.587 405.147 535.352 406.144C535.116 407.141 535.07 408.618 535.211 410.576L536.487 428.194L548.15 427.499C549.619 427.411 550.883 427.029 551.941 426.351C553.055 425.609 554.108 424.44 555.1 422.846L555.761 421.792L557.671 422.692L558.807 438.383L555.764 439.67L555.06 437.593C554.359 435.546 553.28 434.228 551.823 433.639C550.423 432.985 548.039 432.758 544.671 432.959L536.865 433.424L538.214 452.051Z" fill="#AB3B61"/>
<path d="M617.431 412.131C617.536 415.564 616.803 418.681 615.233 421.482C613.723 424.281 611.398 426.487 608.257 428.1C612.406 429.345 615.658 431.318 618.011 434.019C620.426 436.719 621.685 439.755 621.789 443.127C621.96 448.705 620.195 453.167 616.494 456.513C612.792 459.858 606.772 461.636 598.433 461.847L572.774 462.496L571.574 459.397L573.672 458.792C575.981 458.059 577.518 457.13 578.281 456.007C579.044 454.883 579.382 452.911 579.295 450.091L577.899 404.665C577.875 403.868 577.704 403.32 577.388 403.021C577.07 402.661 576.544 402.49 575.808 402.509L570.474 402.644L569.265 399.27C571.87 398.161 575.306 397.153 579.573 396.248C583.839 395.281 587.964 394.747 591.95 394.646C600.35 394.434 606.655 395.962 610.867 399.229C615.079 402.497 617.267 406.798 617.431 412.131ZM588.259 445.263C588.414 450.29 589.526 453.544 591.597 455.026C593.665 456.446 596.079 457.121 598.838 457.051C603.13 456.943 606.464 455.601 608.839 453.025C611.212 450.388 612.336 447.016 612.21 442.909C612.138 440.579 611.46 438.48 610.175 436.61C608.95 434.678 607.216 433.157 604.973 432.048C602.73 430.94 600.137 430.422 597.194 430.497C596.151 430.523 595.044 430.428 593.871 430.213C592.76 429.995 591.863 429.742 591.179 429.453C590.246 429.047 589.765 428.384 589.737 427.464C589.703 426.361 590.115 425.798 590.974 425.777C591.219 425.77 591.713 425.881 592.457 426.107C593.259 426.271 594.304 426.337 595.592 426.304C599.761 426.198 602.943 424.891 605.136 422.381C607.39 419.87 608.455 416.592 608.331 412.546C608.212 408.683 606.797 405.56 604.085 403.174C601.435 400.787 597.749 399.653 593.028 399.773C588.92 399.877 586.909 401.339 586.996 404.159L588.259 445.263Z" fill="#AB3B61"/>
<path d="M624.784 428.409C624.88 421.909 626.1 416.096 628.445 410.972C630.791 405.787 634.255 401.719 638.838 398.769C643.483 395.759 649.117 394.294 655.74 394.374C662.364 394.454 667.922 396.055 672.415 399.176C676.971 402.237 680.345 406.387 682.537 411.628C684.792 416.807 685.871 422.647 685.776 429.148C685.68 435.649 684.429 441.461 682.023 446.584C679.678 451.708 676.183 455.744 671.539 458.694C666.957 461.644 661.354 463.079 654.73 462.998C648.107 462.918 642.517 461.348 637.962 458.287C633.468 455.227 630.124 451.107 627.931 445.929C625.737 440.75 624.688 434.91 624.784 428.409ZM675.744 429.303C675.809 424.887 675.231 420.433 674.009 415.941C672.849 411.388 670.789 407.56 667.829 404.457C664.87 401.293 660.968 399.681 656.123 399.623C651.769 399.57 647.977 400.874 644.748 403.533C641.582 406.132 639.137 409.691 637.414 414.209C635.692 418.727 634.79 423.746 634.709 429.265C634.63 434.601 635.326 439.394 636.797 443.644C638.268 447.894 640.488 451.264 643.457 453.753C646.487 456.243 650.149 457.514 654.442 457.566C658.735 457.618 662.464 456.406 665.629 453.93C668.855 451.454 671.328 448.08 673.047 443.807C674.767 439.473 675.666 434.638 675.744 429.303Z" fill="#AB3B61"/>
<path d="M746.022 462.528L744.917 465.418L722.407 464.246L721.502 461.067L723.558 460.622C725.239 460.279 726.495 459.853 727.326 459.344C728.158 458.835 728.759 458.067 729.131 457.043C729.568 455.96 729.851 454.409 729.979 452.389L732.18 417.59L699.086 449.675L698.976 451.42C698.809 454.052 699.061 455.907 699.73 456.986C700.399 458.065 701.815 458.998 703.977 459.786L705.872 460.438L704.767 463.328L682.166 462.151L681.261 458.972L683.501 458.536C685.185 458.132 686.443 457.676 687.275 457.166C688.106 456.657 688.707 455.89 689.079 454.865C689.517 453.783 689.797 452.262 689.921 450.303L692.547 408.802C692.725 405.987 692.45 404.007 691.724 402.864C690.997 401.721 689.492 400.752 687.207 399.957L685.037 399.291L686.337 396.227L706.549 397.279L707.651 398.811L706.352 400.401C704.693 402.341 703.485 404.428 702.729 406.661C701.974 408.894 701.48 411.847 701.247 415.519L699.563 442.146L732.651 410.153C732.748 407.64 732.432 405.843 731.701 404.761C730.975 403.618 729.496 402.712 727.264 402.043L725.278 401.387L726.578 398.322L746.607 399.365L747.892 400.906L746.409 402.487C744.693 404.363 743.457 406.417 742.701 408.65C741.945 410.883 741.449 413.866 741.213 417.6L738.942 453.5C738.771 456.194 739.052 458.081 739.782 459.163C740.512 460.245 741.991 461.151 744.219 461.882L746.022 462.528ZM702.616 380.77C702.74 378.811 703.574 377.288 705.117 376.202C706.726 375.057 708.51 374.536 710.47 374.638C711.022 374.667 711.471 374.844 711.819 375.169C712.171 375.433 712.338 375.718 712.318 376.024C712.307 376.208 712.029 376.715 711.485 377.547C710.944 378.317 710.63 379.406 710.541 380.814C710.328 384.18 712.947 386.006 718.398 386.289C721.277 386.439 723.417 386.121 724.819 385.334C726.224 384.486 726.974 383.327 727.067 381.858C727.159 380.389 726.957 379.212 726.46 378.326C726.025 377.444 725.812 376.911 725.824 376.727C725.847 376.36 726.05 376.063 726.433 375.838C726.816 375.612 727.314 375.515 727.927 375.547C729.887 375.649 731.532 376.349 732.864 377.646C734.199 378.883 734.804 380.48 734.681 382.439C734.506 385.194 732.933 387.23 729.962 388.55C727.051 389.872 723.115 390.404 718.154 390.146C713.193 389.887 709.319 388.949 706.533 387.33C703.748 385.711 702.442 383.524 702.616 380.77Z" fill="#AB3B61"/>
<path d="M819.612 463.417C819.358 465.301 820.142 466.837 821.962 468.026C823.782 469.214 826.063 469.96 828.807 470.264L826.074 490.597L822.818 491.347L822.563 489.098C822.07 485.404 821.452 482.405 820.71 480.102C820.02 477.867 818.904 476.047 817.36 474.642C815.809 473.298 813.692 472.478 811.009 472.181L783.028 469.086C780.407 468.796 778.165 469.134 776.303 470.1C774.432 471.127 772.836 472.647 771.514 474.66C770.183 476.734 768.759 479.507 767.241 482.978L766.489 485.116L763.527 483.678L766.272 463.254C771.361 463.138 775.421 461.243 778.451 457.568C781.49 453.833 783.926 448.828 785.759 442.553C787.653 436.285 789.814 427.116 792.24 415.046C792.673 412.75 792.444 410.997 791.555 409.789C790.666 408.58 789.221 407.587 787.222 406.811L785.284 406.041L786.798 403.063L831.422 407.999L832.232 409.569L831.005 411.099C829.151 412.929 827.733 414.963 826.752 417.198C825.84 419.38 825.143 422.264 824.661 425.85L819.612 463.417ZM804.118 466.145C805.825 466.333 807.099 466.289 807.941 466.012C808.843 465.742 809.508 465.168 809.936 464.29C810.371 463.351 810.724 461.878 810.993 459.872L816.533 418.659C816.794 416.714 816.807 415.235 816.572 414.222C816.398 413.215 815.909 412.483 815.105 412.023C814.369 411.51 813.179 411.163 811.533 410.981L805.955 410.364C804.126 410.161 802.687 410.28 801.638 410.719C800.597 411.097 799.922 411.979 799.612 413.363C796.562 428.695 793.444 440.38 790.26 448.418C787.085 456.395 783.352 461.38 779.063 463.373L804.118 466.145Z" fill="#AB3B61"/>
<path d="M838.818 442.35C840.002 435.957 842.185 430.399 845.367 425.675C848.56 420.891 852.674 417.363 857.708 415.092C862.814 412.77 868.641 412.108 875.189 413.107C881.738 414.105 886.976 416.454 890.904 420.153C894.904 423.802 897.551 428.36 898.845 433.828C900.211 439.245 900.302 445.15 899.117 451.542C897.933 457.935 895.72 463.489 892.478 468.203C889.296 472.927 885.157 476.42 880.063 478.682C875.028 480.953 869.237 481.589 862.689 480.591C856.14 479.592 850.866 477.269 846.866 473.621C842.927 469.982 840.304 465.458 838.999 460.05C837.694 454.643 837.634 448.742 838.818 442.35ZM889.154 450.302C889.958 445.96 890.131 441.491 889.674 436.894C889.288 432.247 887.888 428.189 885.476 424.721C883.075 421.192 879.479 419.063 874.689 418.332C870.384 417.676 866.409 418.434 862.765 420.607C859.192 422.729 856.174 425.896 853.71 430.11C851.247 434.323 849.512 439.143 848.507 444.571C847.535 449.818 847.421 454.637 848.166 459.029C848.911 463.422 850.546 467.05 853.07 469.916C855.655 472.79 859.069 474.551 863.314 475.198C867.558 475.845 871.455 475.168 875.005 473.167C878.616 471.175 881.631 468.193 884.05 464.221C886.481 460.189 888.182 455.549 889.154 450.302Z" fill="#AB3B61"/>
<path d="M964.717 479.908C964.129 483.664 963.985 486.884 964.285 489.568C964.66 492.203 965.603 494.701 967.116 497.062L965.598 498.261L945.834 494.35L945.482 491.094L947.687 490.968C949.756 490.753 951.258 490.269 952.196 489.518C953.207 488.718 953.935 487.394 954.38 485.546L954.995 482.2L961.348 444.382L931.859 484.837L926.986 483.873L918.75 435.951L910.139 463.109C908.774 467.212 907.891 470.098 907.49 471.768C906.902 474.213 906.641 476.348 906.706 478.172C906.846 479.949 907.287 481.786 908.028 483.682L908.724 485.506L907.026 486.669L890.059 483.311L889.798 480.074L892.003 479.948C894.521 479.697 896.331 479.118 897.431 478.211C898.592 477.316 899.585 475.545 900.411 472.897L911.366 437.957C911.612 437.194 911.961 436.138 912.411 434.79C912.861 433.443 913.215 432.232 913.473 431.159C913.961 429.131 913.921 427.593 913.354 426.543C912.847 425.506 911.658 424.552 909.788 423.682L907.841 422.735L909.565 419.89L925.99 423.141L933.762 471.813L963.715 430.607L976.711 433.179L977.72 434.878L976.25 436.274C974.705 437.717 973.454 439.25 972.497 440.872C971.614 442.447 970.879 444.456 970.291 446.901C970.076 447.796 969.581 450.509 968.806 455.041L964.717 479.908Z" fill="#AB3B61"/>
<path d="M468.767 257.756L470.285 257.36C471.957 256.876 473.079 256.238 473.651 255.446C474.223 254.654 474.509 253.246 474.509 251.222V237.956H452.927V251.684C452.927 253.576 453.191 254.896 453.719 255.644C454.247 256.392 455.325 257.008 456.953 257.492L458.339 257.888L457.613 260H441.443L440.651 257.756L442.169 257.36C443.841 256.876 444.963 256.238 445.535 255.446C446.107 254.654 446.393 253.246 446.393 251.222V221.39C446.393 219.366 446.107 217.958 445.535 217.166C444.963 216.374 443.841 215.736 442.169 215.252L440.651 214.856L441.443 212.612H455.897L456.755 213.668L455.897 214.856C454.797 216.308 454.027 217.848 453.587 219.476C453.147 221.104 452.927 223.238 452.927 225.878V233.93H474.509V221.39C474.509 219.366 474.223 217.958 473.651 217.166C473.079 216.374 471.957 215.736 470.285 215.252L468.767 214.856L469.559 212.612H484.013L484.871 213.668L484.013 214.856C482.913 216.308 482.143 217.848 481.703 219.476C481.263 221.104 481.043 223.238 481.043 225.878V251.684C481.043 253.576 481.307 254.896 481.835 255.644C482.363 256.392 483.441 257.008 485.069 257.492L486.455 257.888L485.729 260H469.559L468.767 257.756ZM521.85 253.928C520.046 256.48 518.198 258.284 516.306 259.34C514.414 260.396 512.368 260.924 510.168 260.924C508.056 260.924 506.098 260.33 504.294 259.142C502.49 257.91 501.038 256.084 499.938 253.664C498.882 251.244 498.354 248.318 498.354 244.886C498.354 241.102 499.036 237.824 500.4 235.052C501.808 232.236 503.788 230.08 506.34 228.584C508.936 227.088 511.972 226.34 515.448 226.34C517.164 226.34 519.584 226.626 522.708 227.198C525.348 227.638 527.328 227.902 528.648 227.99L529.374 228.848L528.582 230.036C528.274 230.476 528.054 230.894 527.922 231.29C527.79 231.642 527.724 232.082 527.724 232.61V254.192C527.724 255.556 528.384 256.238 529.704 256.238C530.804 256.238 531.904 255.842 533.004 255.05L534.258 256.766C533.114 258.042 531.882 259.054 530.562 259.802C529.242 260.55 528.032 260.924 526.932 260.924C525.128 260.924 523.83 260.374 523.038 259.274C522.246 258.174 521.85 256.392 521.85 253.928ZM505.284 243.632C505.284 247.812 505.988 250.892 507.396 252.872C508.848 254.852 510.652 255.842 512.808 255.842C514.568 255.842 516.218 255.358 517.758 254.39C519.298 253.378 520.662 251.86 521.85 249.836V232.016C519.826 230.652 517.67 229.97 515.382 229.97C512.17 229.97 509.684 231.18 507.924 233.6C506.164 235.976 505.284 239.32 505.284 243.632ZM598.074 253.598C598.074 254.874 598.624 255.842 599.724 256.502C600.824 257.118 602.232 257.426 603.948 257.426V271.088L601.968 271.88L601.638 270.428C601.022 267.876 600.362 265.874 599.658 264.422C598.954 262.97 598.052 261.87 596.952 261.122C595.852 260.374 594.4 260 592.596 260H577.746C575.942 260 574.49 260.352 573.39 261.056C572.334 261.804 571.476 262.882 570.816 264.29C570.156 265.742 569.452 267.788 568.704 270.428L568.308 271.814L566.262 271.022V257.426C568.946 257.118 570.97 256.216 572.334 254.72C573.698 253.18 574.644 251.222 575.172 248.846C575.7 246.426 576.206 242.84 576.69 238.088L577.086 234.656C577.218 233.908 577.284 233.314 577.284 232.874C577.284 231.774 576.976 231.026 576.36 230.63C575.744 230.234 574.6 229.904 572.928 229.64L571.542 229.178L572.202 227.198H600.714L601.506 228.188L600.714 229.178C599.702 230.498 598.998 231.906 598.602 233.402C598.25 234.898 598.074 236.9 598.074 239.408V253.598ZM588.174 256.568C589.758 256.568 590.792 256.282 591.276 255.71C591.804 255.094 592.068 253.84 592.068 251.948V235.382C592.068 233.534 591.804 232.324 591.276 231.752C590.792 231.136 589.758 230.828 588.174 230.828H585.666C584.434 230.828 583.51 231.004 582.894 231.356C582.278 231.664 581.926 232.302 581.838 233.27C581.266 238.374 580.716 242.4 580.188 245.348C579.66 248.296 578.956 250.716 578.076 252.608C577.196 254.5 576.052 255.82 574.644 256.568H588.174ZM614.53 243.632C614.53 240.112 615.168 237.054 616.444 234.458C617.764 231.862 619.634 229.86 622.054 228.452C624.518 227.044 627.378 226.34 630.634 226.34C633.89 226.34 636.728 227.044 639.148 228.452C641.568 229.86 643.438 231.862 644.758 234.458C646.078 237.054 646.738 240.112 646.738 243.632C646.738 247.108 646.078 250.166 644.758 252.806C643.438 255.402 641.568 257.404 639.148 258.812C636.728 260.22 633.89 260.924 630.634 260.924C627.378 260.924 624.518 260.22 622.054 258.812C619.634 257.404 617.764 255.402 616.444 252.806C615.168 250.166 614.53 247.108 614.53 243.632ZM639.808 243.83C639.808 241.762 639.522 239.65 638.95 237.494C638.378 235.338 637.41 233.512 636.046 232.016C634.726 230.52 632.988 229.772 630.832 229.772C628.984 229.772 627.334 230.366 625.882 231.554C624.474 232.698 623.374 234.326 622.582 236.438C621.79 238.55 621.394 240.97 621.394 243.698C621.394 247.878 622.208 251.2 623.836 253.664C625.464 256.128 627.664 257.36 630.436 257.36C632.24 257.36 633.846 256.81 635.254 255.71C636.706 254.566 637.828 252.982 638.62 250.958C639.412 248.89 639.808 246.514 639.808 243.83ZM663.576 233.6C664.852 231.532 666.414 229.97 668.262 228.914C670.11 227.858 672.178 227.33 674.466 227.33C677.062 227.33 679.504 227.946 681.792 229.178C684.124 230.41 685.994 232.258 687.402 234.722C688.81 237.186 689.514 240.134 689.514 243.566C689.514 246.866 688.876 249.836 687.6 252.476C686.324 255.116 684.476 257.184 682.056 258.68C679.68 260.176 676.864 260.924 673.608 260.924C670.176 260.924 667.162 260.066 664.566 258.35C662.014 256.634 660.034 254.192 658.626 251.024C657.262 247.812 656.58 244.05 656.58 239.738C656.58 234.546 657.24 229.86 658.56 225.68C659.88 221.456 661.882 218.112 664.566 215.648C667.25 213.14 670.572 211.886 674.532 211.886C675.192 211.886 676.138 211.93 677.37 212.018L679.68 212.084C681.308 212.084 682.54 211.864 683.376 211.424C683.948 211.028 684.52 210.302 685.092 209.246C685.224 208.938 685.378 208.674 685.554 208.454C685.73 208.19 685.928 208.058 686.148 208.058C686.5 208.058 686.874 208.498 687.27 209.378C687.71 210.258 687.93 211.116 687.93 211.952C687.93 213.976 687.336 215.472 686.148 216.44C685.004 217.408 683.442 217.892 681.462 217.892C680.186 217.892 678.404 217.672 676.116 217.232C675.808 217.188 675.104 217.078 674.004 216.902C672.948 216.726 671.958 216.638 671.034 216.638C670.022 216.638 669.01 216.77 667.998 217.034C664.874 217.87 663.224 223.392 663.048 233.6H663.576ZM682.518 243.83C682.518 241.718 682.166 239.672 681.462 237.692C680.802 235.668 679.724 234.018 678.228 232.742C676.776 231.422 674.95 230.762 672.75 230.762C669.846 230.762 667.558 231.906 665.886 234.194C664.258 236.482 663.444 239.65 663.444 243.698C663.444 247.658 664.236 250.936 665.82 253.532C667.448 256.084 669.736 257.36 672.684 257.36C674.664 257.36 676.402 256.744 677.898 255.512C679.394 254.28 680.538 252.652 681.33 250.628C682.122 248.56 682.518 246.294 682.518 243.83ZM709.976 230.498C712.836 227.726 716.004 226.34 719.48 226.34C722.208 226.34 724.628 227.022 726.74 228.386C728.896 229.75 730.568 231.642 731.756 234.062C732.944 236.482 733.538 239.232 733.538 242.312C733.538 245.832 732.9 249.022 731.624 251.882C730.392 254.698 728.676 256.92 726.476 258.548C724.276 260.132 721.79 260.924 719.018 260.924C716.422 260.924 714.222 260.33 712.418 259.142C712.022 258.878 711.824 258.482 711.824 257.954C711.824 257.514 711.89 257.14 712.022 256.832C712.198 256.48 712.462 256.304 712.814 256.304C712.99 256.304 713.474 256.48 714.266 256.832C715.102 257.184 716.18 257.36 717.5 257.36C719.216 257.36 720.756 256.766 722.12 255.578C723.528 254.39 724.606 252.762 725.354 250.694C726.146 248.582 726.542 246.228 726.542 243.632C726.542 241.124 726.146 238.902 725.354 236.966C724.606 234.986 723.528 233.446 722.12 232.346C720.756 231.246 719.172 230.696 717.368 230.696C714.684 230.696 712.22 231.554 709.976 233.27V270.23C709.976 271.902 710.152 273.068 710.504 273.728C710.9 274.432 711.648 274.916 712.748 275.18L714.134 275.51L713.408 277.556H701.924L701.132 276.566L701.924 275.51C702.716 274.366 703.266 273.178 703.574 271.946C703.882 270.714 704.036 269.064 704.036 266.996V234.854C704.036 234.15 703.926 233.644 703.706 233.336C703.53 233.028 703.178 232.808 702.65 232.676L699.218 231.95V229.772C699.922 229.156 701.264 228.562 703.244 227.99C705.224 227.418 706.94 227.132 708.392 227.132C709.448 227.132 709.976 228.144 709.976 230.168V230.498ZM756.554 247.79C756.554 250.474 756.928 252.476 757.676 253.796C758.468 255.116 759.37 255.952 760.382 256.304C761.438 256.612 762.692 256.766 764.144 256.766C766.08 256.766 767.664 256.15 768.896 254.918C770.172 253.642 770.81 252.014 770.81 250.034C770.81 248.23 770.106 246.712 768.698 245.48C767.29 244.204 765.508 243.566 763.352 243.566C762.076 243.566 761.064 243.676 760.316 243.896C759.568 244.116 759.106 244.226 758.93 244.226C758.666 244.226 758.468 244.094 758.336 243.83C758.204 243.566 758.138 243.258 758.138 242.906C758.138 242.114 758.776 241.542 760.052 241.19C761.328 240.794 762.802 240.596 764.474 240.596C767.202 240.596 769.556 241.036 771.536 241.916C773.516 242.796 775.012 243.962 776.024 245.414C777.08 246.866 777.608 248.472 777.608 250.232C777.608 253.268 776.42 255.666 774.044 257.426C771.712 259.142 768.038 260 763.022 260H746.126L745.4 257.954L746.786 257.492C748.282 257.052 749.294 256.48 749.822 255.776C750.35 255.028 750.614 253.752 750.614 251.948V235.25C750.614 233.446 750.35 232.17 749.822 231.422C749.294 230.674 748.282 230.08 746.786 229.64L745.4 229.178L746.126 227.198H759.326L760.118 228.122L759.326 229.178C758.314 230.542 757.588 231.994 757.148 233.534C756.752 235.03 756.554 236.988 756.554 239.408V247.79ZM779.522 257.954L780.908 257.492C782.448 257.052 783.46 256.48 783.944 255.776C784.472 255.072 784.736 253.796 784.736 251.948V235.25C784.736 233.402 784.472 232.126 783.944 231.422C783.46 230.674 782.448 230.08 780.908 229.64L779.522 229.178L780.116 227.198H793.514L794.24 228.122L793.514 229.178C792.502 230.498 791.776 231.928 791.336 233.468C790.94 234.964 790.742 236.944 790.742 239.408V252.41C790.742 253.642 790.852 254.588 791.072 255.248C791.292 255.864 791.644 256.348 792.128 256.7C792.612 257.008 793.36 257.316 794.372 257.624L795.626 258.02L795.032 260H780.116L779.522 257.954ZM835.727 232.082C830.711 237.098 827.345 240.53 825.629 242.378L832.955 254.918C833.351 255.622 833.769 256.106 834.209 256.37C834.649 256.634 835.155 256.766 835.727 256.766C836.519 256.766 837.355 256.48 838.235 255.908L839.687 257.888C837.795 259.912 835.749 260.924 833.549 260.924C830.601 260.924 828.247 259.384 826.487 256.304L821.141 247.196C817.269 251.684 815.333 254.566 815.333 255.842C815.333 256.546 815.751 257.25 816.587 257.954L817.841 259.01L817.049 260H806.819L806.093 258.614L807.545 257.162C813.529 251.178 817.599 247.042 819.755 244.754L812.561 232.346C812.165 231.642 811.747 231.158 811.307 230.894C810.867 230.63 810.361 230.498 809.789 230.498C808.997 230.498 808.161 230.784 807.281 231.356L805.829 229.376C807.721 227.352 809.767 226.34 811.967 226.34C814.915 226.34 817.269 227.88 819.029 230.96L824.177 239.936C828.049 235.536 829.985 232.676 829.985 231.356C829.985 230.652 829.567 229.948 828.731 229.244L827.477 228.188L828.269 227.198H838.499L839.225 228.584L835.727 232.082ZM523.103 319.954L524.555 319.492C526.139 319.052 527.173 318.48 527.657 317.776C528.185 317.072 528.449 315.796 528.449 313.948V307.414H512.543V314.41C512.543 315.642 512.653 316.588 512.873 317.248C513.093 317.864 513.445 318.348 513.929 318.7C514.457 319.008 515.227 319.316 516.239 319.624L517.559 320.02L516.899 322H502.115L501.389 319.954L502.709 319.492C504.293 319.052 505.327 318.48 505.811 317.776C506.339 317.072 506.603 315.796 506.603 313.948V297.25C506.603 295.402 506.339 294.126 505.811 293.422C505.327 292.674 504.293 292.08 502.709 291.64L501.389 291.178L502.115 289.198H515.249L516.041 290.122L515.249 291.178C514.237 292.498 513.533 293.928 513.137 295.468C512.741 296.964 512.543 298.944 512.543 301.408V303.586H528.449V297.25C528.449 295.402 528.185 294.126 527.657 293.422C527.173 292.674 526.139 292.08 524.555 291.64L523.103 291.178L523.895 289.198H537.029L537.887 290.122L537.029 291.178C536.061 292.498 535.379 293.906 534.983 295.402C534.587 296.898 534.389 298.9 534.389 301.408V314.41C534.389 315.642 534.499 316.588 534.719 317.248C534.939 317.864 535.291 318.348 535.775 318.7C536.259 319.008 537.007 319.316 538.019 319.624L539.207 320.02L538.613 322H523.895L523.103 319.954ZM574.588 315.928C572.784 318.48 570.936 320.284 569.044 321.34C567.152 322.396 565.106 322.924 562.906 322.924C560.794 322.924 558.836 322.33 557.032 321.142C555.228 319.91 553.776 318.084 552.676 315.664C551.62 313.244 551.092 310.318 551.092 306.886C551.092 303.102 551.774 299.824 553.138 297.052C554.546 294.236 556.526 292.08 559.078 290.584C561.674 289.088 564.71 288.34 568.186 288.34C569.902 288.34 572.322 288.626 575.446 289.198C578.086 289.638 580.066 289.902 581.386 289.99L582.112 290.848L581.32 292.036C581.012 292.476 580.792 292.894 580.66 293.29C580.528 293.642 580.462 294.082 580.462 294.61V316.192C580.462 317.556 581.122 318.238 582.442 318.238C583.542 318.238 584.642 317.842 585.742 317.05L586.996 318.766C585.852 320.042 584.62 321.054 583.3 321.802C581.98 322.55 580.77 322.924 579.67 322.924C577.866 322.924 576.568 322.374 575.776 321.274C574.984 320.174 574.588 318.392 574.588 315.928ZM558.022 305.632C558.022 309.812 558.726 312.892 560.134 314.872C561.586 316.852 563.39 317.842 565.546 317.842C567.306 317.842 568.956 317.358 570.496 316.39C572.036 315.378 573.4 313.86 574.588 311.836V294.016C572.564 292.652 570.408 291.97 568.12 291.97C564.908 291.97 562.422 293.18 560.662 295.6C558.902 297.976 558.022 301.32 558.022 305.632ZM626.696 315.598C626.696 316.874 627.246 317.842 628.346 318.502C629.446 319.118 630.854 319.426 632.57 319.426V333.088L630.59 333.88L630.26 332.428C629.644 329.876 628.984 327.874 628.28 326.422C627.576 324.97 626.674 323.87 625.574 323.122C624.474 322.374 623.022 322 621.218 322H606.368C604.564 322 603.112 322.352 602.012 323.056C600.956 323.804 600.098 324.882 599.438 326.29C598.778 327.742 598.074 329.788 597.326 332.428L596.93 333.814L594.884 333.022V319.426C597.568 319.118 599.592 318.216 600.956 316.72C602.32 315.18 603.266 313.222 603.794 310.846C604.322 308.426 604.828 304.84 605.312 300.088L605.708 296.656C605.84 295.908 605.906 295.314 605.906 294.874C605.906 293.774 605.598 293.026 604.982 292.63C604.366 292.234 603.222 291.904 601.55 291.64L600.164 291.178L600.824 289.198H629.336L630.128 290.188L629.336 291.178C628.324 292.498 627.62 293.906 627.224 295.402C626.872 296.898 626.696 298.9 626.696 301.408V315.598ZM616.796 318.568C618.38 318.568 619.414 318.282 619.898 317.71C620.426 317.094 620.69 315.84 620.69 313.948V297.382C620.69 295.534 620.426 294.324 619.898 293.752C619.414 293.136 618.38 292.828 616.796 292.828H614.288C613.056 292.828 612.132 293.004 611.516 293.356C610.9 293.664 610.548 294.302 610.46 295.27C609.888 300.374 609.338 304.4 608.81 307.348C608.282 310.296 607.578 312.716 606.698 314.608C605.818 316.5 604.674 317.82 603.266 318.568H616.796ZM671.4 317.05C669.772 318.942 667.836 320.394 665.592 321.406C663.348 322.418 660.928 322.924 658.332 322.924C655.296 322.924 652.634 322.22 650.346 320.812C648.058 319.404 646.276 317.424 645 314.872C643.768 312.32 643.152 309.372 643.152 306.028C643.152 302.508 643.856 299.428 645.264 296.788C646.672 294.104 648.652 292.036 651.204 290.584C653.8 289.088 656.814 288.34 660.246 288.34C662.666 288.34 664.712 288.802 666.384 289.726C668.1 290.606 669.376 291.794 670.212 293.29C671.048 294.742 671.466 296.326 671.466 298.042C671.466 299.89 670.96 301.672 669.948 303.388C668.98 305.104 667.55 306.512 665.658 307.612C663.766 308.668 661.5 309.196 658.86 309.196C657.452 309.196 655.89 308.932 654.174 308.404C652.458 307.876 651.6 307.106 651.6 306.094C651.6 305.742 651.688 305.412 651.864 305.104C652.084 304.796 652.326 304.642 652.59 304.642C652.722 304.642 653.162 304.796 653.91 305.104C654.658 305.368 655.626 305.5 656.814 305.5C659.454 305.5 661.5 304.752 662.952 303.256C664.448 301.76 665.196 300 665.196 297.976C665.196 296.26 664.646 294.786 663.546 293.554C662.446 292.278 660.906 291.64 658.926 291.64C656.11 291.64 653.91 292.894 652.326 295.402C650.742 297.866 649.95 301.408 649.95 306.028C649.95 309.944 650.786 313.024 652.458 315.268C654.13 317.468 656.55 318.568 659.718 318.568C663.59 318.568 666.802 317.314 669.354 314.806C669.53 314.63 669.728 314.542 669.948 314.542C670.3 314.542 670.674 314.762 671.07 315.202C671.466 315.598 671.664 316.016 671.664 316.456C671.664 316.676 671.576 316.874 671.4 317.05ZM701.845 304.51C702.637 304.51 703.033 304.862 703.033 305.566C703.033 305.918 702.923 306.204 702.703 306.424C702.483 306.6 702.087 306.842 701.515 307.15C700.811 307.502 700.173 307.898 699.601 308.338C699.073 308.778 698.611 309.394 698.215 310.186L695.707 315.07C694.299 318.062 693.045 320.13 691.945 321.274C690.845 322.374 689.393 322.924 687.589 322.924C685.653 322.924 683.805 322.11 682.045 320.482L683.035 318.634C683.783 319.206 684.575 319.492 685.411 319.492C685.895 319.492 686.291 319.36 686.599 319.096C686.951 318.788 687.325 318.326 687.721 317.71L692.143 309.394C693.067 307.678 694.475 306.358 696.367 305.434L689.305 294.94C688.645 293.928 687.941 293.18 687.193 292.696C686.445 292.212 685.587 291.86 684.619 291.64L683.233 291.244L683.893 289.198H694.585L695.707 290.188L695.179 291.244C695.135 291.42 695.003 291.794 694.783 292.366C694.563 292.938 694.453 293.466 694.453 293.95C694.453 294.566 694.519 295.116 694.651 295.6C694.783 296.04 695.113 296.612 695.641 297.316L700.591 304.51H701.845ZM699.403 319.954L700.723 319.492C702.307 319.052 703.363 318.48 703.891 317.776C704.419 317.072 704.683 315.796 704.683 313.948V297.25C704.683 295.402 704.419 294.126 703.891 293.422C703.363 292.674 702.307 292.08 700.723 291.64L699.403 291.178L700.195 289.198H713.329L714.121 290.122L713.329 291.178C712.317 292.542 711.613 293.972 711.217 295.468C710.821 296.964 710.623 298.944 710.623 301.408V314.41C710.623 316.258 710.777 317.512 711.085 318.172C711.393 318.832 712.075 319.316 713.131 319.624L714.319 320.02L713.659 322H700.195L699.403 319.954ZM727.585 317.71C728.025 318.37 728.399 318.832 728.708 319.096C729.015 319.36 729.411 319.492 729.895 319.492C730.731 319.492 731.523 319.206 732.271 318.634L733.327 320.482C731.699 322.11 729.829 322.924 727.717 322.924C726.441 322.924 725.385 322.66 724.549 322.132C723.713 321.648 722.921 320.878 722.173 319.822C721.469 318.722 720.611 317.138 719.599 315.07L717.091 310.186C716.695 309.394 716.211 308.778 715.639 308.338C715.111 307.898 714.495 307.502 713.791 307.15C713.219 306.842 712.823 306.6 712.603 306.424C712.383 306.204 712.273 305.918 712.273 305.566C712.273 304.862 712.669 304.51 713.461 304.51H714.715L719.665 297.316C720.149 296.612 720.479 296.018 720.655 295.534C720.831 295.05 720.919 294.522 720.919 293.95C720.919 293.466 720.809 292.938 720.589 292.366C720.369 291.794 720.237 291.42 720.193 291.244L719.599 290.188L720.655 289.198H731.413L732.205 291.244L730.753 291.64C728.685 292.124 727.101 293.224 726.001 294.94L719.071 305.434C720.875 306.358 722.239 307.678 723.163 309.394L727.585 317.71ZM773.036 315.598C773.036 316.874 773.586 317.842 774.686 318.502C775.786 319.118 777.194 319.426 778.91 319.426V333.088L776.93 333.88L776.6 332.428C775.984 329.876 775.324 327.874 774.62 326.422C773.916 324.97 773.014 323.87 771.914 323.122C770.814 322.374 769.362 322 767.558 322H752.708C750.904 322 749.452 322.352 748.352 323.056C747.296 323.804 746.438 324.882 745.778 326.29C745.118 327.742 744.414 329.788 743.666 332.428L743.27 333.814L741.224 333.022V319.426C743.908 319.118 745.932 318.216 747.296 316.72C748.66 315.18 749.606 313.222 750.134 310.846C750.662 308.426 751.168 304.84 751.652 300.088L752.048 296.656C752.18 295.908 752.246 295.314 752.246 294.874C752.246 293.774 751.938 293.026 751.322 292.63C750.706 292.234 749.562 291.904 747.89 291.64L746.504 291.178L747.164 289.198H775.676L776.468 290.188L775.676 291.178C774.664 292.498 773.96 293.906 773.564 295.402C773.212 296.898 773.036 298.9 773.036 301.408V315.598ZM763.136 318.568C764.72 318.568 765.754 318.282 766.238 317.71C766.766 317.094 767.03 315.84 767.03 313.948V297.382C767.03 295.534 766.766 294.324 766.238 293.752C765.754 293.136 764.72 292.828 763.136 292.828H760.628C759.396 292.828 758.472 293.004 757.856 293.356C757.24 293.664 756.888 294.302 756.8 295.27C756.228 300.374 755.678 304.4 755.15 307.348C754.622 310.296 753.918 312.716 753.038 314.608C752.158 316.5 751.014 317.82 749.606 318.568H763.136Z" fill="#AB3B61"/>
</svg>
