<svg width="120" height="120" viewBox="0 0 120 120" fill="none" xmlns="http://www.w3.org/2000/svg">
<path d="M58.4942 3.23628C59.0899 1.95603 60.9101 1.95603 61.5058 3.23627C62.0676 4.44378 63.7509 4.532 64.4359 3.38983C65.1621 2.17887 66.9724 2.36914 67.431 3.70463C67.8635 4.96425 69.5283 5.22794 70.329 4.16363C71.1778 3.03521 72.9582 3.41366 73.2747 4.78977C73.5732 6.0877 75.2014 6.52397 76.1089 5.54918C77.071 4.51566 78.8021 5.07815 78.973 6.4798C79.1342 7.80183 80.7079 8.40589 81.7123 7.5313C82.7772 6.60402 84.44 7.34437 84.4635 8.75622C84.4856 10.0878 85.9875 10.8531 87.0778 10.0883C88.2338 9.27739 89.8102 10.1875 89.6859 11.5941C89.5687 12.9207 90.9824 13.8388 92.1467 13.1921C93.3811 12.5065 94.8537 13.5764 94.5831 14.9623C94.3279 16.2694 95.6378 17.3302 96.8633 16.8088C98.1627 16.2559 99.5153 17.4739 99.1014 18.8239C98.7109 20.0972 99.9028 21.2891 101.176 20.8986C102.526 20.4847 103.744 21.8373 103.191 23.1367C102.67 24.3622 103.731 25.6721 105.038 25.4169C106.424 25.1463 107.493 26.6189 106.808 27.8533C106.161 29.0176 107.079 30.4313 108.406 30.3141C109.812 30.1898 110.723 31.7662 109.912 32.9222C109.147 34.0125 109.912 35.5144 111.244 35.5365C112.656 35.56 113.396 37.2228 112.469 38.2877C111.594 39.2921 112.198 40.8658 113.52 41.027C114.922 41.1979 115.484 42.929 114.451 43.8911C113.476 44.7986 113.912 46.4268 115.21 46.7253C116.586 47.0418 116.965 48.8222 115.836 49.671C114.772 50.4717 115.036 52.1365 116.295 52.569C117.631 53.0276 117.821 54.8379 116.61 55.5641C115.468 56.2491 115.556 57.9324 116.764 58.4942C118.044 59.0899 118.044 60.9101 116.764 61.5058C115.556 62.0676 115.468 63.7509 116.61 64.4359C117.821 65.1621 117.631 66.9724 116.295 67.431C115.036 67.8635 114.772 69.5283 115.836 70.329C116.965 71.1778 116.586 72.9582 115.21 73.2747C113.912 73.5732 113.476 75.2014 114.451 76.1089C115.484 77.071 114.922 78.8021 113.52 78.973C112.198 79.1342 111.594 80.7079 112.469 81.7123C113.396 82.7772 112.656 84.44 111.244 84.4635C109.912 84.4856 109.147 85.9875 109.912 87.0778C110.723 88.2338 109.812 89.8102 108.406 89.6859C107.079 89.5687 106.161 90.9824 106.808 92.1467C107.493 93.3811 106.424 94.8537 105.038 94.5831C103.731 94.3279 102.67 95.6378 103.191 96.8633C103.744 98.1627 102.526 99.5153 101.176 99.1014C99.9028 98.7109 98.7109 99.9028 99.1014 101.176C99.5153 102.526 98.1627 103.744 96.8633 103.191C95.6378 102.67 94.3279 103.731 94.5831 105.038C94.8537 106.424 93.3811 107.493 92.1467 106.808C90.9824 106.161 89.5687 107.079 89.6859 108.406C89.8102 109.812 88.2338 110.723 87.0778 109.912C85.9875 109.147 84.4856 109.912 84.4635 111.244C84.44 112.656 82.7772 113.396 81.7123 112.469C80.7079 111.594 79.1342 112.198 78.973 113.52C78.8021 114.922 77.071 115.484 76.1089 114.451C75.2014 113.476 73.5732 113.912 73.2747 115.21C72.9582 116.586 71.1778 116.965 70.329 115.836C69.5283 114.772 67.8635 115.036 67.431 116.295C66.9724 117.631 65.1621 117.821 64.4359 116.61C63.7509 115.468 62.0676 115.556 61.5058 116.764C60.9101 118.044 59.0899 118.044 58.4942 116.764C57.9324 115.556 56.2491 115.468 55.5641 116.61C54.8379 117.821 53.0276 117.631 52.569 116.295C52.1365 115.036 50.4717 114.772 49.671 115.836C48.8222 116.965 47.0418 116.586 46.7253 115.21C46.4268 113.912 44.7986 113.476 43.8911 114.451C42.929 115.484 41.1979 114.922 41.027 113.52C40.8658 112.198 39.2921 111.594 38.2877 112.469C37.2228 113.396 35.56 112.656 35.5365 111.244C35.5144 109.912 34.0125 109.147 32.9222 109.912C31.7662 110.723 30.1898 109.812 30.3141 108.406C30.4313 107.079 29.0176 106.161 27.8533 106.808C26.6189 107.493 25.1463 106.424 25.4169 105.038C25.6721 103.731 24.3622 102.67 23.1367 103.191C21.8373 103.744 20.4847 102.526 20.8986 101.176C21.2891 99.9028 20.0972 98.7109 18.8239 99.1014C17.4739 99.5153 16.2559 98.1627 16.8088 96.8633C17.3302 95.6378 16.2694 94.3279 14.9623 94.5831C13.5764 94.8537 12.5065 93.3811 13.1921 92.1467C13.8388 90.9824 12.9207 89.5687 11.5941 89.6859C10.1875 89.8102 9.27739 88.2338 10.0883 87.0778C10.8531 85.9875 10.0879 84.4856 8.75622 84.4635C7.34437 84.44 6.60402 82.7772 7.5313 81.7123C8.40589 80.7079 7.80183 79.1342 6.4798 78.973C5.07815 78.8021 4.51566 77.071 5.54918 76.1089C6.52397 75.2014 6.0877 73.5732 4.78977 73.2747C3.41366 72.9582 3.03521 71.1778 4.16363 70.329C5.22794 69.5283 4.96425 67.8635 3.70463 67.431C2.36914 66.9724 2.17887 65.1621 3.38983 64.4359C4.532 63.7509 4.44378 62.0676 3.23627 61.5058C1.95603 60.9101 1.95603 59.0899 3.23628 58.4942C4.44378 57.9324 4.532 56.2491 3.38984 55.5641C2.17887 54.8379 2.36913 53.0276 3.70463 52.569C4.96425 52.1365 5.22794 50.4717 4.16363 49.671C3.03521 48.8222 3.41366 47.0418 4.78977 46.7253C6.0877 46.4268 6.52397 44.7986 5.54918 43.8911C4.51567 42.929 5.07814 41.1979 6.4798 41.027C7.80183 40.8658 8.40589 39.2921 7.5313 38.2877C6.60402 37.2228 7.34437 35.56 8.75622 35.5365C10.0878 35.5144 10.8531 34.0125 10.0883 32.9222C9.27739 31.7662 10.1875 30.1898 11.5941 30.3141C12.9207 30.4313 13.8388 29.0176 13.1921 27.8533C12.5065 26.6189 13.5764 25.1463 14.9623 25.4169C16.2694 25.6721 17.3302 24.3622 16.8088 23.1367C16.2559 21.8373 17.4739 20.4847 18.8239 20.8986C20.0972 21.2891 21.2891 20.0972 20.8986 18.8239C20.4847 17.4739 21.8373 16.2559 23.1367 16.8088C24.3622 17.3302 25.6721 16.2694 25.4169 14.9623C25.1463 13.5764 26.6189 12.5065 27.8533 13.1921C29.0176 13.8388 30.4313 12.9207 30.3141 11.5941C30.1898 10.1875 31.7662 9.27739 32.9222 10.0883C34.0125 10.8531 35.5144 10.0878 35.5365 8.75622C35.56 7.34437 37.2228 6.60402 38.2877 7.5313C39.2921 8.40589 40.8658 7.80183 41.027 6.4798C41.1979 5.07815 42.929 4.51567 43.8911 5.54918C44.7986 6.52397 46.4268 6.0877 46.7253 4.78977C47.0418 3.41365 48.8222 3.03521 49.671 4.16363C50.4717 5.22794 52.1365 4.96425 52.569 3.70463C53.0276 2.36913 54.8379 2.17887 55.5641 3.38984C56.2491 4.532 57.9324 4.44378 58.4942 3.23628Z" fill="#F1EFF3"/>
<path d="M88 84.9445C88 86.632 86.6027 88.0654 84.9811 87.5985C83.5789 87.1948 82.5884 86.56 81.787 86.0445C80.7325 85.3723 80.077 84.9445 78.5095 84.9445C76.9135 84.9445 76.2865 85.3417 75.232 86.0445C73.921 86.8695 72.1825 88 69.019 88C65.8555 88 64.0885 86.8695 62.806 86.0445C61.7515 85.3723 61.096 84.9445 59.5285 84.9445C57.9325 84.9445 57.3055 85.3417 56.251 86.0445C54.94 86.8695 53.173 88 50.0095 88C46.846 88 45.079 86.8695 43.7965 86.0445C42.742 85.3417 42.0865 84.9445 40.519 84.9445C38.9515 84.9445 38.296 85.3417 37.2415 86.0445C36.4221 86.5601 35.4245 87.1952 34.019 87.5989C32.3971 88.0648 31 86.632 31 84.9445C31 83.257 32.4626 81.9615 33.8822 81.0491C34.0087 80.9677 34.1395 80.881 34.2775 80.789C35.5885 79.964 37.3555 78.8334 40.519 78.8334C43.6825 78.8334 45.4495 79.964 46.732 80.789C47.7865 81.4917 48.4135 81.889 50.0095 81.889C51.6055 81.889 52.2325 81.4917 53.287 80.789C54.598 79.964 56.365 78.8334 59.5285 78.8334C62.692 78.8334 64.459 79.964 65.7415 80.789C66.796 81.4612 67.4515 81.889 69.019 81.889C70.5865 81.889 71.242 81.4917 72.2965 80.789C73.579 79.964 75.346 78.8334 78.5095 78.8334C81.673 78.8334 83.44 79.964 84.7225 80.789C84.8605 80.881 84.9913 80.9677 85.1178 81.0491C86.5374 81.9615 88 83.257 88 84.9445ZM88 74.2501C84.8365 74.2501 83.0695 73.1196 81.787 72.2946C80.7325 71.6224 80.077 71.1946 78.5095 71.1946C76.9135 71.1946 76.2865 71.5918 75.232 72.2946C73.9495 73.1196 72.1825 74.2501 69.019 74.2501C65.8555 74.2501 64.0885 73.1196 62.806 72.2946C61.7515 71.6224 61.096 71.1946 59.5285 71.1946C57.9325 71.1946 57.3055 71.5918 56.251 72.2946C54.9685 73.1196 53.2015 74.2501 50.038 74.2501C46.8745 74.2501 45.1075 73.1196 43.825 72.2946C42.7705 71.6224 42.115 71.1946 40.5475 71.1946C38.98 71.1946 38.3245 71.5918 37.27 72.2946C36.4325 72.8104 35.4278 73.4457 34.0191 73.8494C32.3969 74.3143 31 72.8821 31 71.1946C31 69.5071 32.4626 68.2116 33.8822 67.2992C34.0087 67.2178 34.1395 67.1311 34.2775 67.0391C35.56 66.2141 37.327 65.0835 40.4905 65.0835C43.654 65.0835 45.421 66.2141 46.7035 67.0391C47.758 67.7113 48.4135 68.1391 49.981 68.1391C51.577 68.1391 52.204 67.7419 53.2585 67.0391C54.541 66.2141 56.308 65.0835 59.4715 65.0835C62.635 65.0835 64.402 66.2141 65.6845 67.0391C66.739 67.7113 67.3945 68.1391 68.962 68.1391C70.5295 68.1391 71.185 67.7419 72.2395 67.0391C73.522 66.2141 75.289 65.0835 78.4525 65.0835C81.616 65.0835 83.383 66.2141 84.6655 67.0391C84.803 67.1268 84.9338 67.2103 85.0606 67.2892C86.4934 68.1808 87.943 69.5071 87.943 71.1946V74.1931C87.943 74.2246 87.9685 74.2501 88 74.2501ZM50.0095 60.5003C51.6055 60.5003 52.2325 60.103 53.287 59.4003C54.598 58.5753 56.365 57.4447 59.5285 57.4447C62.692 57.4447 64.459 58.5753 65.7415 59.4003C66.796 60.0725 67.4515 60.5003 69.019 60.5003C70.5865 60.5003 71.242 60.103 72.2965 59.4003C72.8868 59.0311 73.0094 58.2098 72.5341 57.701L55.168 39.1115C51.5999 35.2862 48.255 33.6336 43.3461 33.1556C41.2546 32.952 39.55 34.6992 39.55 36.8005C39.55 38.9169 41.2892 40.5539 43.3747 40.9145C46.4148 41.4403 48.6523 42.7592 50.95 45.2226C52.5551 46.9434 52.5551 49.6128 50.95 51.3337L46.2428 56.3803C45.4171 57.2656 45.6997 58.7679 46.732 59.4003C47.7865 60.103 48.4135 60.5003 50.0095 60.5003Z" fill="#FFCB9A"/>
<path d="M72.325 48.278C76.26 48.278 79.45 44.858 79.45 40.6392C79.45 36.4204 76.26 33.0003 72.325 33.0003C68.3899 33.0003 65.2 36.4204 65.2 40.6392C65.2 44.858 68.3899 48.278 72.325 48.278Z" fill="#FFCB9A"/>
</svg>
