<svg width="120" height="120" viewBox="0 0 120 120" fill="none" xmlns="http://www.w3.org/2000/svg">
<path d="M58.4942 3.23628C59.0899 1.95603 60.9101 1.95603 61.5058 3.23627C62.0676 4.44378 63.7509 4.532 64.4359 3.38983C65.1621 2.17887 66.9724 2.36914 67.431 3.70463C67.8635 4.96425 69.5283 5.22794 70.329 4.16363C71.1778 3.03521 72.9582 3.41366 73.2747 4.78977C73.5732 6.0877 75.2014 6.52397 76.1089 5.54918C77.071 4.51566 78.8021 5.07815 78.973 6.4798C79.1342 7.80183 80.7079 8.40589 81.7123 7.5313C82.7772 6.60402 84.44 7.34437 84.4635 8.75622C84.4856 10.0878 85.9875 10.8531 87.0778 10.0883C88.2338 9.27739 89.8102 10.1875 89.6859 11.5941C89.5687 12.9207 90.9824 13.8388 92.1467 13.1921C93.3811 12.5065 94.8537 13.5764 94.5831 14.9623C94.3279 16.2694 95.6378 17.3302 96.8633 16.8088C98.1627 16.2559 99.5153 17.4739 99.1014 18.8239C98.7109 20.0972 99.9028 21.2891 101.176 20.8986C102.526 20.4847 103.744 21.8373 103.191 23.1367C102.67 24.3622 103.731 25.6721 105.038 25.4169C106.424 25.1463 107.493 26.6189 106.808 27.8533C106.161 29.0176 107.079 30.4313 108.406 30.3141C109.812 30.1898 110.723 31.7662 109.912 32.9222C109.147 34.0125 109.912 35.5144 111.244 35.5365C112.656 35.56 113.396 37.2228 112.469 38.2877C111.594 39.2921 112.198 40.8658 113.52 41.027C114.922 41.1979 115.484 42.929 114.451 43.8911C113.476 44.7986 113.912 46.4268 115.21 46.7253C116.586 47.0418 116.965 48.8222 115.836 49.671C114.772 50.4717 115.036 52.1365 116.295 52.569C117.631 53.0276 117.821 54.8379 116.61 55.5641C115.468 56.2491 115.556 57.9324 116.764 58.4942C118.044 59.0899 118.044 60.9101 116.764 61.5058C115.556 62.0676 115.468 63.7509 116.61 64.4359C117.821 65.1621 117.631 66.9724 116.295 67.431C115.036 67.8635 114.772 69.5283 115.836 70.329C116.965 71.1778 116.586 72.9582 115.21 73.2747C113.912 73.5732 113.476 75.2014 114.451 76.1089C115.484 77.071 114.922 78.8021 113.52 78.973C112.198 79.1342 111.594 80.7079 112.469 81.7123C113.396 82.7772 112.656 84.44 111.244 84.4635C109.912 84.4856 109.147 85.9875 109.912 87.0778C110.723 88.2338 109.812 89.8102 108.406 89.6859C107.079 89.5687 106.161 90.9824 106.808 92.1467C107.493 93.3811 106.424 94.8537 105.038 94.5831C103.731 94.3279 102.67 95.6378 103.191 96.8633C103.744 98.1627 102.526 99.5153 101.176 99.1014C99.9028 98.7109 98.7109 99.9028 99.1014 101.176C99.5153 102.526 98.1627 103.744 96.8633 103.191C95.6378 102.67 94.3279 103.731 94.5831 105.038C94.8537 106.424 93.3811 107.493 92.1467 106.808C90.9824 106.161 89.5687 107.079 89.6859 108.406C89.8102 109.812 88.2338 110.723 87.0778 109.912C85.9875 109.147 84.4856 109.912 84.4635 111.244C84.44 112.656 82.7772 113.396 81.7123 112.469C80.7079 111.594 79.1342 112.198 78.973 113.52C78.8021 114.922 77.071 115.484 76.1089 114.451C75.2014 113.476 73.5732 113.912 73.2747 115.21C72.9582 116.586 71.1778 116.965 70.329 115.836C69.5283 114.772 67.8635 115.036 67.431 116.295C66.9724 117.631 65.1621 117.821 64.4359 116.61C63.7509 115.468 62.0676 115.556 61.5058 116.764C60.9101 118.044 59.0899 118.044 58.4942 116.764C57.9324 115.556 56.2491 115.468 55.5641 116.61C54.8379 117.821 53.0276 117.631 52.569 116.295C52.1365 115.036 50.4717 114.772 49.671 115.836C48.8222 116.965 47.0418 116.586 46.7253 115.21C46.4268 113.912 44.7986 113.476 43.8911 114.451C42.929 115.484 41.1979 114.922 41.027 113.52C40.8658 112.198 39.2921 111.594 38.2877 112.469C37.2228 113.396 35.56 112.656 35.5365 111.244C35.5144 109.912 34.0125 109.147 32.9222 109.912C31.7662 110.723 30.1898 109.812 30.3141 108.406C30.4313 107.079 29.0176 106.161 27.8533 106.808C26.6189 107.493 25.1463 106.424 25.4169 105.038C25.6721 103.731 24.3622 102.67 23.1367 103.191C21.8373 103.744 20.4847 102.526 20.8986 101.176C21.2891 99.9028 20.0972 98.7109 18.8239 99.1014C17.4739 99.5153 16.2559 98.1627 16.8088 96.8633C17.3302 95.6378 16.2694 94.3279 14.9623 94.5831C13.5764 94.8537 12.5065 93.3811 13.1921 92.1467C13.8388 90.9824 12.9207 89.5687 11.5941 89.6859C10.1875 89.8102 9.27739 88.2338 10.0883 87.0778C10.8531 85.9875 10.0879 84.4856 8.75622 84.4635C7.34437 84.44 6.60402 82.7772 7.5313 81.7123C8.40589 80.7079 7.80183 79.1342 6.4798 78.973C5.07815 78.8021 4.51566 77.071 5.54918 76.1089C6.52397 75.2014 6.0877 73.5732 4.78977 73.2747C3.41366 72.9582 3.03521 71.1778 4.16363 70.329C5.22794 69.5283 4.96425 67.8635 3.70463 67.431C2.36914 66.9724 2.17887 65.1621 3.38983 64.4359C4.532 63.7509 4.44378 62.0676 3.23627 61.5058C1.95603 60.9101 1.95603 59.0899 3.23628 58.4942C4.44378 57.9324 4.532 56.2491 3.38984 55.5641C2.17887 54.8379 2.36913 53.0276 3.70463 52.569C4.96425 52.1365 5.22794 50.4717 4.16363 49.671C3.03521 48.8222 3.41366 47.0418 4.78977 46.7253C6.0877 46.4268 6.52397 44.7986 5.54918 43.8911C4.51567 42.929 5.07814 41.1979 6.4798 41.027C7.80183 40.8658 8.40589 39.2921 7.5313 38.2877C6.60402 37.2228 7.34437 35.56 8.75622 35.5365C10.0878 35.5144 10.8531 34.0125 10.0883 32.9222C9.27739 31.7662 10.1875 30.1898 11.5941 30.3141C12.9207 30.4313 13.8388 29.0176 13.1921 27.8533C12.5065 26.6189 13.5764 25.1463 14.9623 25.4169C16.2694 25.6721 17.3302 24.3622 16.8088 23.1367C16.2559 21.8373 17.4739 20.4847 18.8239 20.8986C20.0972 21.2891 21.2891 20.0972 20.8986 18.8239C20.4847 17.4739 21.8373 16.2559 23.1367 16.8088C24.3622 17.3302 25.6721 16.2694 25.4169 14.9623C25.1463 13.5764 26.6189 12.5065 27.8533 13.1921C29.0176 13.8388 30.4313 12.9207 30.3141 11.5941C30.1898 10.1875 31.7662 9.27739 32.9222 10.0883C34.0125 10.8531 35.5144 10.0878 35.5365 8.75622C35.56 7.34437 37.2228 6.60402 38.2877 7.5313C39.2921 8.40589 40.8658 7.80183 41.027 6.4798C41.1979 5.07815 42.929 4.51567 43.8911 5.54918C44.7986 6.52397 46.4268 6.0877 46.7253 4.78977C47.0418 3.41365 48.8222 3.03521 49.671 4.16363C50.4717 5.22794 52.1365 4.96425 52.569 3.70463C53.0276 2.36913 54.8379 2.17887 55.5641 3.38984C56.2491 4.532 57.9324 4.44378 58.4942 3.23628Z" fill="#F1EFF3"/>
<path d="M45.9673 62.3941C46.7562 63.223 48.0783 63.2222 48.8662 62.3924L54.2493 56.7235C54.9826 55.9512 54.9822 54.7398 54.2483 53.9681L36.8158 35.6359C36.027 34.8064 34.688 34.8016 34.0561 35.756C30.9317 40.475 31.3681 47.0193 35.3654 51.2559L45.9673 62.3941ZM65.9096 59.499C66.5109 58.8658 67.4487 58.7169 68.2847 58.969C72.5368 60.2513 77.9607 58.5915 82.0786 54.2548C87.5726 48.469 88.6369 40.1691 84.4086 35.7161C80.209 31.2935 72.3275 32.384 66.8048 38.1698C62.6293 42.5671 61.0671 48.3784 62.381 52.8834C62.6068 53.6575 62.4739 54.5143 61.9186 55.099L36.0691 82.3214C35.3362 83.0932 35.3362 84.3039 36.0691 85.0757L37.3689 86.4446C38.1567 87.2742 39.4786 87.2752 40.2676 86.4467L57.1853 68.6822C57.9743 67.8537 59.2962 67.8547 60.0839 68.6843L76.9753 86.4727C77.7638 87.3031 79.0873 87.3031 79.8759 86.4727L81.1736 85.106C81.9065 84.3342 81.9066 83.1235 81.1736 82.3517L63.9992 64.2652C63.2663 63.4933 63.2663 62.2827 63.9992 61.5108L65.9096 59.499Z" fill="#EDCC2C"/>
</svg>
