<svg width="120" height="120" viewBox="0 0 120 120" fill="none" xmlns="http://www.w3.org/2000/svg">
<path d="M58.492 3.16997C59.0962 1.8999 60.9038 1.8999 61.508 3.16997C62.0777 4.36757 63.7489 4.45516 64.4407 3.32366C65.1743 2.12371 66.972 2.31265 67.4401 3.63891C67.8815 4.88951 69.5344 5.1513 70.3406 4.09832C71.1956 2.98162 72.9637 3.35744 73.2906 4.72536C73.5989 6.01525 75.2154 6.44838 76.1273 5.48544C77.0944 4.46424 78.8135 5.02281 78.9956 6.41741C79.1674 7.73245 80.7297 8.33218 81.7373 7.46984C82.8058 6.55532 84.4571 7.29053 84.4924 8.69653C84.5258 10.0223 86.0169 10.7821 87.1091 10.0298C88.2673 9.23194 89.8328 10.1357 89.721 11.5377C89.6155 12.8597 91.0191 13.7712 92.1839 13.1372C93.4192 12.4648 94.8816 13.5273 94.6238 14.9099C94.3808 16.2136 95.6814 17.2668 96.9061 16.758C98.2049 16.2185 99.5482 17.428 99.1473 18.7761C98.7694 20.0473 99.9527 21.2306 101.224 20.8526C102.572 20.4518 103.782 21.7951 103.242 23.0939C102.733 24.3186 103.786 25.6192 105.09 25.3762C106.473 25.1184 107.535 26.5808 106.863 27.8161C106.229 28.9809 107.14 30.3845 108.462 30.279C109.864 30.1672 110.768 31.7327 109.97 32.8909C109.218 33.9831 109.978 35.4742 111.303 35.5075C112.709 35.5429 113.445 37.1942 112.53 38.2627C111.668 39.2703 112.268 40.8326 113.583 41.0044C114.977 41.1865 115.536 42.9056 114.515 43.8727C113.552 44.7846 113.985 46.4011 115.275 46.7094C116.643 47.0363 117.018 48.8044 115.902 49.6594C114.849 50.4656 115.11 52.1185 116.361 52.5599C117.687 53.028 117.876 54.8257 116.676 55.5593C115.545 56.2511 115.632 57.9223 116.83 58.492C118.1 59.0962 118.1 60.9038 116.83 61.508C115.632 62.0777 115.545 63.7489 116.676 64.4407C117.876 65.1743 117.687 66.972 116.361 67.4401C115.11 67.8815 114.849 69.5344 115.902 70.3406C117.018 71.1956 116.643 72.9637 115.275 73.2906C113.985 73.5989 113.552 75.2154 114.515 76.1273C115.536 77.0944 114.977 78.8135 113.583 78.9956C112.268 79.1674 111.668 80.7297 112.53 81.7373C113.445 82.8058 112.709 84.4571 111.303 84.4924C109.978 84.5258 109.218 86.0169 109.97 87.1091C110.768 88.2673 109.864 89.8328 108.462 89.7209C107.14 89.6155 106.229 91.0191 106.863 92.1839C107.535 93.4192 106.473 94.8816 105.09 94.6238C103.786 94.3808 102.733 95.6814 103.242 96.9061C103.782 98.2049 102.572 99.5482 101.224 99.1473C99.9527 98.7694 98.7694 99.9527 99.1473 101.224C99.5482 102.572 98.2049 103.782 96.9061 103.242C95.6814 102.733 94.3808 103.786 94.6238 105.09C94.8816 106.473 93.4192 107.535 92.1839 106.863C91.0191 106.229 89.6155 107.14 89.7209 108.462C89.8328 109.864 88.2673 110.768 87.1091 109.97C86.0169 109.218 84.5258 109.978 84.4924 111.303C84.4571 112.709 82.8058 113.445 81.7373 112.53C80.7297 111.668 79.1674 112.268 78.9956 113.583C78.8135 114.977 77.0944 115.536 76.1273 114.515C75.2154 113.552 73.5989 113.985 73.2906 115.275C72.9637 116.643 71.1956 117.018 70.3406 115.902C69.5344 114.849 67.8815 115.11 67.4401 116.361C66.972 117.687 65.1743 117.876 64.4407 116.676C63.7489 115.545 62.0777 115.632 61.508 116.83C60.9038 118.1 59.0962 118.1 58.492 116.83C57.9223 115.632 56.2511 115.545 55.5593 116.676C54.8257 117.876 53.028 117.687 52.5599 116.361C52.1185 115.11 50.4656 114.849 49.6594 115.902C48.8044 117.018 47.0363 116.643 46.7094 115.275C46.4011 113.985 44.7846 113.552 43.8727 114.515C42.9056 115.536 41.1865 114.977 41.0044 113.583C40.8326 112.268 39.2703 111.668 38.2627 112.53C37.1942 113.445 35.5429 112.709 35.5075 111.303C35.4742 109.978 33.9831 109.218 32.8909 109.97C31.7327 110.768 30.1672 109.864 30.279 108.462C30.3845 107.14 28.9809 106.229 27.8161 106.863C26.5808 107.535 25.1184 106.473 25.3762 105.09C25.6192 103.786 24.3186 102.733 23.0939 103.242C21.7951 103.782 20.4518 102.572 20.8526 101.224C21.2306 99.9527 20.0473 98.7694 18.7761 99.1473C17.428 99.5482 16.2185 98.2049 16.758 96.9061C17.2668 95.6814 16.2136 94.3808 14.9099 94.6238C13.5273 94.8816 12.4648 93.4192 13.1372 92.1839C13.7712 91.0191 12.8597 89.6155 11.5377 89.721C10.1357 89.8328 9.23194 88.2673 10.0298 87.1091C10.7821 86.0169 10.0223 84.5258 8.69653 84.4924C7.29053 84.4571 6.55532 82.8058 7.46984 81.7373C8.33218 80.7297 7.73245 79.1674 6.41741 78.9956C5.02281 78.8135 4.46424 77.0944 5.48544 76.1273C6.44838 75.2154 6.01525 73.5989 4.72536 73.2906C3.35744 72.9637 2.98162 71.1956 4.09832 70.3406C5.1513 69.5344 4.88951 67.8815 3.63891 67.4401C2.31265 66.972 2.12371 65.1743 3.32366 64.4407C4.45516 63.7489 4.36757 62.0777 3.16997 61.508C1.8999 60.9038 1.89991 59.0962 3.16997 58.492C4.36757 57.9223 4.45516 56.2511 3.32366 55.5593C2.12371 54.8257 2.31265 53.028 3.63891 52.5599C4.88951 52.1185 5.1513 50.4656 4.09832 49.6594C2.98162 48.8044 3.35744 47.0363 4.72536 46.7094C6.01525 46.4011 6.44838 44.7846 5.48544 43.8727C4.46424 42.9056 5.02281 41.1865 6.41741 41.0044C7.73245 40.8326 8.33218 39.2703 7.46984 38.2627C6.55531 37.1942 7.29053 35.5429 8.69653 35.5075C10.0223 35.4742 10.7821 33.9831 10.0298 32.8909C9.23194 31.7327 10.1357 30.1672 11.5377 30.279C12.8597 30.3845 13.7712 28.9809 13.1372 27.8161C12.4648 26.5808 13.5273 25.1184 14.9099 25.3762C16.2136 25.6192 17.2668 24.3186 16.758 23.0939C16.2185 21.7951 17.428 20.4518 18.7761 20.8526C20.0473 21.2306 21.2306 20.0473 20.8526 18.7761C20.4518 17.428 21.7951 16.2185 23.0939 16.758C24.3186 17.2668 25.6192 16.2136 25.3762 14.9099C25.1184 13.5273 26.5808 12.4648 27.8161 13.1372C28.9809 13.7712 30.3845 12.8597 30.279 11.5377C30.1672 10.1357 31.7327 9.23194 32.8909 10.0298C33.9831 10.7821 35.4742 10.0223 35.5075 8.69653C35.5429 7.29052 37.1942 6.55531 38.2627 7.46984C39.2703 8.33218 40.8326 7.73245 41.0044 6.41741C41.1865 5.02281 42.9056 4.46424 43.8727 5.48544C44.7846 6.44838 46.4011 6.01525 46.7094 4.72536C47.0363 3.35744 48.8044 2.98162 49.6594 4.09832C50.4656 5.1513 52.1185 4.88951 52.5599 3.63891C53.028 2.31265 54.8257 2.12371 55.5593 3.32366C56.2511 4.45516 57.9223 4.36757 58.492 3.16997Z" fill="#F1EFF3"/>
<path d="M28.217 48.6957C26.9612 49.7918 26.9646 51.7149 28.1478 52.889L29.9778 54.7049C31.1475 55.8656 33.029 55.8537 34.2835 54.7853C48.7611 42.4545 70.2389 42.4545 84.7165 54.7853C85.971 55.8537 87.8525 55.8656 89.0222 54.7049L90.854 52.8873C92.0365 51.7138 92.0407 49.792 90.7864 48.6956C72.9466 33.1015 46.0827 33.1015 28.217 48.6957ZM52.737 73.0709C51.3155 73.9397 51.3271 75.89 52.5096 77.0634L57.3869 81.9031C58.5566 83.0638 60.4434 83.0638 61.6131 81.9031L66.4968 77.057C67.6768 75.8861 67.6915 73.9403 66.2746 73.071C62.1466 70.5384 56.8803 70.5383 52.737 73.0709ZM40.4357 60.8261C39.1401 61.8756 39.147 63.8036 40.3306 64.9781L42.1596 66.793C43.3293 67.9537 45.2059 67.9328 46.5237 66.9434C54.1763 61.1979 64.8237 61.1979 72.4763 66.9434C73.7941 67.9328 75.6707 67.9537 76.8404 66.793L78.6722 64.9753C79.8547 63.8019 79.8629 61.876 78.5695 60.8261C67.5168 51.8541 51.5119 51.8541 40.4357 60.8261Z" fill="#368FC8"/>
</svg>
